<svg xmlns="http://www.w3.org/2000/svg" width="576" height="433" style="shape-rendering:geometricPrecision;text-rendering:geometricPrecision;image-rendering:optimizeQuality;fill-rule:evenodd;clip-rule:evenodd"><path style="opacity:.663" fill="#908f97" d="M311.5 5.5a491.029 491.029 0 0 0-56 2c4.772-1.371 9.772-2.204 15-2.5 13.84-.827 27.506-.66 41 .5z"/><path style="opacity:1" fill="#302e3c" d="M311.5 5.5c4.914-.138 9.581.528 14 2 7.233 3.043 14.9 4.71 23 5 .734 1.208 1.067 2.541 1 4-1.238.912-2.572 1.08-4 .5 2.429-.451 2.596-1.284.5-2.5-.914 1.154-1.747.987-2.5-.5a296.526 296.526 0 0 1-9-.5c-5.222 2.108-4.888 3.608 1 4.5a11.392 11.392 0 0 0 2 2.5c6.427-1.232 12.76-.732 19 1.5-1.456.423-1.956 1.256-1.5 2.5 2.468-.7 4.635-.034 6.5 2h-7c-4.294-2.316-8.96-3.65-14-4a313.7 313.7 0 0 0-42-6c-6.821-1.155-13.821-1.321-21-.5-6.234.178-12.234 1.012-18 2.5-5-.002-9.667.998-14 3-1.068.934-2.401 1.268-4 1h-3c-.03-.997.47-1.664 1.5-2a186.336 186.336 0 0 1 17.5-5 10.31 10.31 0 0 1 3 1 424.765 424.765 0 0 1 32.5-3c2.447 1.293 4.614.793 6.5-1.5a7.292 7.292 0 0 0-3-2 3.646 3.646 0 0 0 1-1.5c-4.82-1.71-9.32-2.377-13.5-2a29.464 29.464 0 0 1-4.5 2.5l1 1c-3.044.359-3.378 1.025-1 2a127.713 127.713 0 0 1-11-2.5c-6.067.606-12.233 1.606-18.5 3-2.042-.785-4.042-.452-6 1-2.041-.923-4.208-1.256-6.5-1l3-2h1c4.95-.27 9.617-1.27 14-3a491.029 491.029 0 0 1 56-2z"/><path style="opacity:1" fill="#262535" d="m238.5 22.5-4 1a23.842 23.842 0 0 1-9-1 1173.693 1173.693 0 0 1-11 3 4.934 4.934 0 0 1 .5-3 39.984 39.984 0 0 0 5.5-5c1-.333 1.667-1 2-2h1c3.662-.223 6.995-1.223 10-3h4c2.292-.256 4.459.077 6.5 1 1.958-1.452 3.958-1.785 6-1 6.267-1.394 12.433-2.394 18.5-3a127.713 127.713 0 0 0 11 2.5c-2.378-.975-2.044-1.641 1-2l-1-1a29.464 29.464 0 0 0 4.5-2.5c4.18-.377 8.68.29 13.5 2a3.646 3.646 0 0 1-1 1.5 7.292 7.292 0 0 1 3 2c-1.886 2.293-4.053 2.793-6.5 1.5a424.765 424.765 0 0 0-32.5 3 10.31 10.31 0 0 0-3-1 186.336 186.336 0 0 0-17.5 5c-1.03.336-1.53 1.003-1.5 2z"/><path style="opacity:.741" fill="#828188" d="M255.5 7.5c-4.383 1.73-9.05 2.73-14 3 4.333-2.002 9-3.002 14-3z"/><path style="opacity:1" fill="#777780" d="M325.5 7.5c8.013.59 15.679 2.257 23 5-8.1-.29-15.767-1.957-23-5z"/><path style="opacity:.745" fill="#8a8990" d="m240.5 10.5-3 2h-4c2.015-1.424 4.348-2.09 7-2z"/><path style="opacity:.769" fill="#807f89" d="M233.5 12.5c-3.005 1.777-6.338 2.777-10 3 3.005-1.777 6.338-2.777 10-3z"/><path style="opacity:1" fill="#272535" d="M349.5 16.5a24.93 24.93 0 0 1 8-1c2.286.095 4.286.762 6 2 1.1 1.058 2.434 1.892 4 2.5l-1 1c2.31.497 4.643.663 7 .5-.111.617-.444 1.117-1 1.5l4 1c-1.196.654-1.196 1.154 0 1.5 2.12-1.372 3.12-.705 3 2h8c.404 1.256 1.071 2.423 2 3.5-.51 1.826-1.344 1.993-2.5.5-.977 2.759-.144 4.759 2.5 6-.505 1.419-1.505 2.085-3 2-1.238-.31-1.238-.81 0-1.5a34.084 34.084 0 0 0-8-1.5c-1.623-2.451-3.789-4.451-6.5-6-2.085 1.147-3.585.48-4.5-2a54.3 54.3 0 0 0-6-2c-1.865-2.034-4.032-2.7-6.5-2-.456-1.244.044-2.077 1.5-2.5-6.24-2.232-12.573-2.732-19-1.5a11.392 11.392 0 0 1-2-2.5c-5.888-.892-6.222-2.392-1-4.5 2.896.207 5.896.373 9 .5.753 1.487 1.586 1.654 2.5.5 2.096 1.216 1.929 2.049-.5 2.5 1.428.58 2.762.412 4-.5z"/><path style="opacity:1" fill="#56565e" d="M348.5 12.5c3.285.428 6.285 1.428 9 3a24.93 24.93 0 0 0-8 1c.067-1.459-.266-2.792-1-4z"/><path style="opacity:.365" fill="#97969e" d="M298.5 16.5c-13.034.07-26.034.737-39 2 5.766-1.488 11.766-2.322 18-2.5 7.179-.821 14.179-.655 21 .5z"/><path style="opacity:.796" fill="#84858c" d="M222.5 15.5c-.333 1-1 1.667-2 2a19.24 19.24 0 0 1-6 1c2.436-1.371 5.103-2.371 8-3z"/><path style="opacity:.333" fill="#a4a5ac" d="M259.5 18.5c-4.442 1.49-9.109 2.49-14 3 4.333-2.002 9-3.002 14-3z"/><path style="opacity:.961" fill="#73727b" d="M214.5 18.5c-1.676 2.334-4.009 3.334-7 3 2.009-1.565 4.343-2.565 7-3z"/><path style="opacity:1" fill="#62606a" d="M363.5 17.5c3.637.764 6.97 2.097 10 4a24.939 24.939 0 0 1-7-.5l1-1c-1.566-.608-2.9-1.442-4-2.5z"/><path style="opacity:.882" fill="#919097" d="M340.5 22.5c5.04.35 9.706 1.684 14 4-4.93-.759-9.597-2.092-14-4z"/><path style="opacity:.973" fill="#6b6a73" d="M207.5 21.5c-2.335 2.665-5.335 3.998-9 4 2.588-2.092 5.588-3.425 9-4z"/><path style="opacity:.216" fill="#b5b6bb" d="M238.5 22.5h3c-2.099 1.112-4.433 1.779-7 2v-1l4-1z"/><path style="opacity:1" fill="#55545e" d="M373.5 21.5c4.762 1.216 9.095 3.216 13 6h-7c.12-2.705-.88-3.372-3-2-1.196-.346-1.196-.846 0-1.5l-4-1c.556-.383.889-.883 1-1.5z"/><path style="opacity:.302" fill="#abaaae" d="M231.5 25.5c-3.119 1.37-6.452 2.37-10 3 2.881-2.18 6.214-3.18 10-3z"/><path style="opacity:1" fill="#43434c" d="M354.5 26.5h7a54.3 54.3 0 0 1 6 2c.915 2.48 2.415 3.147 4.5 2 2.711 1.549 4.877 3.549 6.5 6-8.068-3.373-16.068-6.707-24-10z"/><path style="opacity:1" fill="#2a2938" d="M220.5 17.5a39.984 39.984 0 0 1-5.5 5 4.934 4.934 0 0 0-.5 3c3.528-.943 7.195-1.943 11-3a23.842 23.842 0 0 0 9 1v1a5.728 5.728 0 0 1-3 1c-3.786-.18-7.119.82-10 3-2.053-.098-3.72.569-5 2-2.053-.098-3.72.569-5 2-1.014 1.174-2.347 1.84-4 2-1.88-.27-3.213.396-4 2-2.203.104-4.203.77-6 2-1.967-.24-3.801.094-5.5 1-2.096-1.215-1.929-2.049.5-2.5-3.044-.359-3.378-1.026-1-2-2.667-.667-2.667-1.333 0-2-1.098-.77-1.098-1.603 0-2.5.838-.342 1.172-1.008 1-2 1.681-1.508 3.681-2.508 6-3 3.665-.002 6.665-1.335 9-4 2.991.334 5.324-.666 7-3a19.24 19.24 0 0 0 6-1z"/><path style="opacity:.263" fill="#aeadba" d="M221.5 28.5c-1.28 1.431-2.947 2.098-5 2 1.28-1.431 2.947-2.098 5-2z"/><path style="opacity:.682" fill="#858589" d="M192.5 28.5c.172.992-.162 1.658-1 2l-4 1c1.159-1.75 2.826-2.75 5-3z"/><path style="opacity:.231" fill="#b7b7bd" d="M216.5 30.5c-1.28 1.431-2.947 2.098-5 2 1.28-1.431 2.947-2.098 5-2z"/><path style="opacity:1" fill="#67686d" d="M302.5 36.5c-.958-.453-1.792-1.12-2.5-2a55.451 55.451 0 0 1-5.5 6 28.535 28.535 0 0 1 4.5-9c1.802 1.29 2.969 2.956 3.5 5z"/><path style="opacity:.008" fill="#ceced2" d="M207.5 34.5c-1.014 1.174-2.347 1.84-4 2 .787-1.604 2.12-2.27 4-2z"/><path style="opacity:.275" fill="#bdbcc0" d="M203.5 36.5c-1.681 1.508-3.681 2.508-6 3v-1c1.797-1.23 3.797-1.896 6-2z"/><path style="opacity:1" fill="#302f3d" d="M191.5 30.5c-1.098.897-1.098 1.73 0 2.5-2.667.667-2.667 1.333 0 2-2.378.974-2.044 1.641 1 2-2.429.451-2.596 1.285-.5 2.5 1.699-.906 3.533-1.24 5.5-1v1c-1.681 1.508-3.681 2.508-6 3-1.527-.073-2.527.594-3 2-.342.838-1.008 1.172-2 1-3.61.81-6.944 2.144-10 4-2.327-.253-4.327.414-6 2-.793-.855-.46-1.689 1-2.5a6.544 6.544 0 0 0-3-3l1-1c-1.689.134-3.356.634-5 1.5 6.852-6.173 14.518-11.173 23-15l4-1z"/><path style="opacity:.816" fill="#898891" d="M302.5 36.5c1.762.762 2.762 2.096 3 4-1.762-.762-2.762-2.096-3-4z"/><path style="opacity:1" fill="#5b5b63" d="M378.5 36.5c2.716.178 5.383.678 8 1.5-1.238.69-1.238 1.19 0 1.5v1c-2.985-.826-5.651-2.159-8-4z"/><path style="opacity:1" fill="#2e2d3b" d="M387.5 27.5c7.539 3.596 14.539 7.93 21 13v3c1.679-.215 2.679.452 3 2-1.325-1.453-2.158-1.12-2.5 1a28.69 28.69 0 0 0-7-5c-.781 1.444-.614 2.777.5 4a772.121 772.121 0 0 1 20 14.5c1.134 1.016.801 1.683-1 2 2.307 2.128 3.974 4.628 5 7.5-2-1.333-3.667-3-5-5-1.085-2.087-2.751-3.42-5-4-1.085-2.087-2.751-3.42-5-4-1.904-.238-3.238-1.238-4-3-.473-1.406-1.473-2.073-3-2-.473-1.406-1.473-2.073-3-2-1.934-.61-3.601-1.61-5-3-.473-1.406-1.473-2.073-3-2-.992.172-1.658-.162-2-1-.473-1.406-1.473-2.073-3-2-.992.172-1.658-.162-2-1v-1c1.495.085 2.495-.581 3-2-2.644-1.241-3.477-3.241-2.5-6 1.156 1.493 1.99 1.326 2.5-.5-.929-1.077-1.596-2.244-2-3.5z"/><path style="opacity:1" fill="#2a2937" d="M302.5 36.5c.238 1.904 1.238 3.238 3 4 1.915-.285 3.581.049 5 1 2.344.44 4.344 1.44 6 3 0 .667-.333 1-1 1-1.51 1.228-3.01 1.228-4.5 0 .143 1.365.643 2.698 1.5 4-1.447.634-2.113 1.8-2 3.5.028 1.07.361 1.903 1 2.5v2c.423 2.281-.244 3.948-2 5-2.015-1.424-4.348-2.09-7-2l-10 4c-1.914-3.184-2.58-6.851-2-11-1.411-2.414-3.411-4.08-6-5v-3a45.792 45.792 0 0 0 9-2.5c.752-.67 1.086-1.504 1-2.5a55.451 55.451 0 0 0 5.5-6c.708.88 1.542 1.547 2.5 2z"/><path style="opacity:.09" fill="#b6b6b9" d="M310.5 41.5h7c.237 1.291-.096 2.291-1 3-1.656-1.56-3.656-2.56-6-3z"/><path style="opacity:.824" fill="#85858d" d="M294.5 40.5c.086.996-.248 1.83-1 2.5a45.792 45.792 0 0 1-9 2.5v3c-1.966-.755-2.3-1.921-1-3.5 3.931-1.028 7.598-2.528 11-4.5z"/><path style="opacity:.392" fill="#adadb1" d="M388.5 41.5c1.527-.073 2.527.594 3 2-1.527.073-2.527-.594-3-2z"/><path style="opacity:.008" fill="#d2d1d5" d="M191.5 42.5c-.473 1.406-1.473 2.073-3 2 .473-1.406 1.473-2.073 3-2z"/><path style="opacity:1" fill="#696971" d="M315.5 45.5c-.238 1.904-1.238 3.238-3 4-.857-1.302-1.357-2.635-1.5-4 1.49 1.228 2.99 1.228 4.5 0z"/><path style="opacity:.396" fill="#9d9db0" d="M393.5 44.5c1.527-.073 2.527.594 3 2-1.527.073-2.527-.594-3-2z"/><path style="opacity:1" fill="#43434d" d="M408.5 40.5a86.637 86.637 0 0 1 18 13c-1.637.718-3.303.885-5 .5l1-1a19.858 19.858 0 0 0-5-4.5c-1.505 2.63-2.171 2.297-2-1-1.699-.027-3.033-.694-4-2-.321-1.548-1.321-2.215-3-2v-3z"/><path style="opacity:.922" fill="#808086" d="M284.5 48.5c2.589.92 4.589 2.586 6 5h-1c-2-1.333-3.667-3-5-5z"/><path style="opacity:.545" fill="#8f8f9a" d="M401.5 49.5c1.527-.073 2.527.594 3 2-1.527.073-2.527-.594-3-2z"/><path style="opacity:.804" fill="#7e7d84" d="M161.5 48.5c-1.411 2.414-3.411 4.08-6 5 1.411-2.414 3.411-4.08 6-5z"/><path style="opacity:.392" fill="#a9a8ab" d="M212.5 51.5a5.728 5.728 0 0 0-3 1c.487-3.215 1.487-3.548 3-1z"/><path style="opacity:.251" fill="#acacb4" d="M312.5 49.5a19.222 19.222 0 0 0-1 6c-.639-.597-.972-1.43-1-2.5-.113-1.7.553-2.866 2-3.5z"/><path style="opacity:.576" fill="#88888d" d="M404.5 51.5c1.527-.073 2.527.594 3 2-1.527.073-2.527-.594-3-2z"/><path style="opacity:.827" fill="#9f9da4" d="M214.5 52.5c1.73.526 3.064 1.526 4 3-2.132-.054-3.465-1.054-4-3z"/><path style="opacity:.318" fill="#aeaeb2" d="M224.5 55.5c2.107-.968 4.441-1.302 7-1a139.818 139.818 0 0 0-3 13c-1.001-3.92-.334-7.754 2-11.5a18.437 18.437 0 0 0-6-.5z"/><path style="opacity:1" fill="#54535d" d="M426.5 53.5a40.346 40.346 0 0 1 11 10c-1.44-.863-2.774-.863-4 0-1.211-.774-1.211-1.607 0-2.5-1.802-1.827-3.968-2.994-6.5-3.5a8.43 8.43 0 0 1-.5-4z"/><path style="opacity:.831" fill="#74737c" d="M155.5 53.5c-2.069 3.072-4.736 5.406-8 7 2.069-3.072 4.736-5.406 8-7z"/><path style="opacity:1" fill="#54535d" d="M186.5 45.5a480.32 480.32 0 0 0-30 22c-.28-2.888 1.053-4.388 4-4.5-1.284-1.297-1.117-2.464.5-3.5l1 2c.71-1.473 1.876-2.14 3.5-2 1.201-3.858 3.867-5.858 8-6-.381-2.442.286-3.108 2-2 .798-.457 1.131-1.124 1-2 3.056-1.856 6.39-3.19 10-4z"/><path style="opacity:1" fill="#2a2836" d="M176.5 49.5c.131.876-.202 1.543-1 2-1.714-1.108-2.381-.442-2 2-4.133.142-6.799 2.142-8 6-1.624-.14-2.79.527-3.5 2l-1-2c-1.617 1.036-1.784 2.203-.5 3.5-2.947.112-4.28 1.612-4 4.5-2 2.667-4.333 5-7 7a19.24 19.24 0 0 0-6-1c-1.777-1.1-3.777-1.934-6-2.5a120 120 0 0 0 9-9.5c0-.667.333-1 1-1 3.264-1.594 5.931-3.928 8-7 2.589-.92 4.589-2.586 6-5 .473-1.406 1.473-2.073 3-2 1.644-.866 3.311-1.366 5-1.5l-1 1a6.544 6.544 0 0 1 3 3c-1.46.811-1.793 1.645-1 2.5 1.673-1.586 3.673-2.253 6-2z"/><path style="opacity:.596" fill="#98979d" d="M411.5 56.5c2.249.58 3.915 1.913 5 4-2.249-.58-3.915-1.913-5-4z"/><path style="opacity:.71" fill="#9898a0" d="M302.5 60.5c2.652-.09 4.985.576 7 2-2.652.09-4.985-.576-7-2z"/><path style="opacity:.09" fill="#d2d1d8" d="M368.5 61.5c-1.915-.285-3.581.049-5 1-.543-.06-.876-.393-1-1 2.136-1.293 4.136-1.293 6 0z"/><path style="opacity:.863" fill="#7b7b83" d="M380.5 57.5c-1.085 2.087-2.751 3.42-5 4 1.085-2.087 2.751-3.42 5-4z"/><path style="opacity:.839" fill="#86878d" d="M416.5 60.5c2.249.58 3.915 1.913 5 4-2.249-.58-3.915-1.913-5-4z"/><path style="opacity:.557" fill="#a6a5aa" d="M311.5 57.5c.961 1.765 1.295 3.765 1 6-1.291.237-2.291-.096-3-1 1.756-1.052 2.423-2.719 2-5z"/><path style="opacity:.892" fill="#68676f" d="M368.5 61.5h7a809.596 809.596 0 0 1-11 2 9.419 9.419 0 0 0 3 3 5.575 5.575 0 0 0-1 3c-1.793-1.926-2.793-4.26-3-7 1.419-.951 3.085-1.285 5-1z"/><path style="opacity:1" fill="#282735" d="M411.5 45.5c.967 1.306 2.301 1.973 4 2-.171 3.297.495 3.63 2 1a19.858 19.858 0 0 1 5 4.5l-1 1c1.697.385 3.363.218 5-.5a8.43 8.43 0 0 0 .5 4c2.532.506 4.698 1.673 6.5 3.5-1.211.893-1.211 1.726 0 2.5 1.226-.863 2.56-.863 4 0 3 2.333 5.667 5 8 8v2c-1.302-1.307-2.635-1.307-4 0-1.934-.4-3.434-1.4-4.5-3-.5 1.167-1.333 2-2.5 2.5 1.26 1.113 2.427 1.28 3.5.5.007 2.81 1.174 4.81 3.5 6-1.208.734-2.541 1.067-4 1-2.667-4.667-6.333-8.333-11-11-1.026-2.872-2.693-5.372-5-7.5 1.801-.317 2.134-.984 1-2a772.121 772.121 0 0 0-20-14.5c-1.114-1.223-1.281-2.556-.5-4a28.69 28.69 0 0 1 7 5c.342-2.12 1.175-2.453 2.5-1z"/><path style="opacity:1" fill="#2d2c3a" d="M212.5 51.5c.992-.172 1.658.162 2 1 .535 1.946 1.868 2.946 4 3h6a18.437 18.437 0 0 1 6 .5c-2.334 3.746-3.001 7.58-2 11.5-.073 1.527.594 2.527 2 3 .61.891.943 1.891 1 3-3.201 1.76-6.867 2.594-11 2.5l-7.5 7.5c-.278-.916-.778-1.582-1.5-2-.095-2.286-.762-4.286-2-6-3.062-2.619-6.562-4.619-10.5-6 .559-2.083 2.059-3.416 4.5-4 2.667-.667 4.333-2.333 5-5-.221-2.779.112-5.446 1-8a5.728 5.728 0 0 1 3-1z"/><path style="opacity:1" fill="#292837" d="M384.5 56.5c.766 3.582.766 7.082 0 10.5 1.801.317 2.134.984 1 2 1.544-.487 3.21-.987 5-1.5l-1 8a4.932 4.932 0 0 1-3-.5c.951-.718 1.117-1.55.5-2.5l-2.5 2.5c.237 2.288.237 4.788 0 7.5v4c-.211 1.924-.877 2.257-2 1a38.47 38.47 0 0 0-5-5.5c-4.851-.174-9.518-.674-14-1.5 2.334-1.676 3.334-4.009 3-7v-4a5.575 5.575 0 0 1 1-3 9.419 9.419 0 0 1-3-3 809.596 809.596 0 0 0 11-2c2.249-.58 3.915-1.913 5-4 1.259-3.026 2.592-3.36 4-1z"/><path style="opacity:.039" fill="#dcdce0" d="M289.5 53.5h1c-.58 4.149.086 7.816 2 11-.709.904-1.709 1.237-3 1v-12z"/><path style="opacity:.643" fill="#828288" d="M79.5 67.5a299.486 299.486 0 0 0-13.5-2c-3.186.244-6.353.577-9.5 1 7.77-2.788 15.437-2.455 23 1z"/><path style="opacity:.961" fill="#706f77" d="M208.5 60.5c-.667 2.667-2.333 4.333-5 5 1.333-2 3-3.667 5-5z"/><path style="opacity:.6" fill="#97969c" d="M146.5 61.5a120 120 0 0 1-9 9.5c2.223.566 4.223 1.4 6 2.5a51.648 51.648 0 0 1-7-1c1.906-4.908 5.239-8.575 10-11z"/><path style="opacity:1" fill="#63636c" d="M384.5 56.5c1.121 2.454 1.954 5.12 2.5 8a30.155 30.155 0 0 0 3.5 3c-1.79.513-3.456 1.013-5 1.5 1.134-1.016.801-1.683-1-2 .766-3.418.766-6.918 0-10.5z"/><path style="opacity:.733" fill="#838387" d="M84.5 68.5c2.286.095 4.286.762 6 2-2.51.447-4.51-.22-6-2z"/><path style="opacity:.22" fill="#bebec3" d="M228.5 67.5c1.406.473 2.073 1.473 2 3-1.406-.473-2.073-1.473-2-3z"/><path style="opacity:.745" fill="#9d9ba3" d="M426.5 69.5c4.667 2.667 8.333 6.333 11 11-4-3.333-7.667-7-11-11z"/><path style="opacity:.933" fill="#6e6f74" d="M54.5 67.5c-1.085 2.087-2.751 3.42-5 4 1.085-2.087 2.751-3.42 5-4z"/><path style="opacity:1" fill="#4a4954" d="M390.5 67.5c2.353.84 4.353 2.174 6 4-2.107 2.56-4.774 4.394-8 5.5-1.323.816-1.989 1.983-2 3.5l-2 2c.237-2.712.237-5.212 0-7.5l2.5-2.5c.617.95.451 1.782-.5 2.5.948.483 1.948.65 3 .5l1-8z"/><path style="opacity:1" fill="#272635" d="M98.5 72.5v1c2.649 1.61 5.649 2.443 9 2.5-.651 1.308.015 2.141 2 2.5l3 1.5c-.837 1.011-1.17 2.178-1 3.5a16.985 16.985 0 0 1-6.5-2 3.942 3.942 0 0 0-2 1 4.458 4.458 0 0 0-1.5-2c-1.024 1.353-2.357 2.02-4 2a76.94 76.94 0 0 1-10-1c-1.599.268-2.932-.066-4-1-1.16-.765-2.16-1.765-3-3a114.674 114.674 0 0 0-15-1.5c2.401-.805 2.234-1.638-.5-2.5a66.778 66.778 0 0 1-5.5 2c-1.333 2-3 3.667-5 5-2.336-1.094-2.336-2.427 0-4-.124-.607-.457-.94-1-1-.188-1.603.312-2.937 1.5-4 1.073.78 2.24.613 3.5-.5-1.8-.317-2.134-.984-1-2 2.254-1.651 4.588-1.818 7-.5 2.878-2.295 5.878-2.295 9 0-1.244 1.633-.744 2.633 1.5 3 1.788-.8 3.455-1.134 5-1 6.007 1.707 12.174 2.374 18.5 2z"/><path style="opacity:.353" fill="#a2a1af" d="M98.5 73.5v-1c2.652-.09 4.985.576 7 2a51.648 51.648 0 0 1-7-1z"/><path style="opacity:.761" fill="#8d8c94" d="M445.5 71.5c2.087 1.085 3.42 2.751 4 5l-4-3v-2z"/><path style="opacity:1" fill="#33333e" d="M79.5 67.5c1.791-.134 3.458.2 5 1 1.49 1.78 3.49 2.447 6 2 2.928.065 5.595.732 8 2-6.326.374-12.493-.293-18.5-2-1.545-.134-3.212.2-5 1-2.244-.367-2.744-1.367-1.5-3-3.122-2.295-6.122-2.295-9 0-2.412-1.318-4.746-1.151-7 .5-1.134 1.016-.8 1.683 1 2-1.26 1.113-2.427 1.28-3.5.5-1.188 1.063-1.688 2.397-1.5 4 .065.438-.101.772-.5 1l-1-2c-1.1 2.539-2.766 3.205-5 2-1.319 2.906-1.652 5.906-1 9 .654-1.196 1.154-1.196 1.5 0-.363.683-.696 1.35-1 2-.978.311-1.645.978-2 2 1.56 3.873.227 6.207-4 7v-2c.065-2.928.732-5.595 2-8 1.424-2.014 2.09-4.348 2-7 .67-3.349 2.336-6.016 5-8 2.249-.58 3.915-1.913 5-4 .342-.838 1.008-1.172 2-1 3.147-.423 6.314-.756 9.5-1 4.525.566 9.025 1.232 13.5 2z"/><path style="opacity:.71" fill="#9d9da2" d="M143.5 73.5a19.24 19.24 0 0 1 6 1c-2.098.984-4.098.651-6-1z"/><path style="opacity:.369" fill="#aaaaaf" d="M209.5 75.5c1.238 1.714 1.905 3.714 2 6-1.574-1.602-2.241-3.602-2-6z"/><path style="opacity:.969" fill="#7a7981" d="M366.5 73.5c.334 2.991-.666 5.324-3 7 .435-2.657 1.435-4.99 3-7z"/><path style="opacity:1" fill="#4c4b56" d="M98.5 73.5c2.306.493 4.639.826 7 1 5.309.576 10.309 1.909 15 4-3.871-.44-7.538-.44-11 0-1.985-.359-2.651-1.192-2-2.5-3.351-.057-6.351-.89-9-2.5z"/><path style="opacity:1" fill="#383744" d="M325.5 81.5c2.015 1.424 4.348 2.09 7 2 1.599-.268 2.932.066 4 1a2.427 2.427 0 0 0-2 .5c.752.67 1.086 1.504 1 2.5-3.141-.449-6.141-1.449-9-3-2.461 1.102-4.961 1.102-7.5 0-1.812-.007-3.312.66-4.5 2-1.196-.346-1.196-.846 0-1.5-1.947-.991-3.947-1.325-6-1 1.123 1.044 2.456 1.71 4 2l-1 1c2.982.498 5.982.665 9 .5v3c5.015-.35 9.848.317 14.5 2 1.813-1.11 2.646-.442 2.5 2 2.589-.039 4.589.961 6 3-1.759.454-3.759.454-6 0-.992.172-1.658-.162-2-1-3.005-1.777-6.338-2.777-10-3a204.46 204.46 0 0 0-25-4c-11.257-1.466-22.591-1.132-34 1 .582-1.431 1.415-2.764 2.5-4l1 2c2.312-.455 4.312-1.455 6-3 7.754 1.147 15.587 1.314 23.5.5a13.194 13.194 0 0 1-5.5-4.5l-1 1a99.133 99.133 0 0 0-13.5-1.5c2.378-.975 2.044-1.641-1-2a32.438 32.438 0 0 0-8-.5c18.542-3.156 36.875-2.156 55 3z"/><path style="opacity:.027" fill="#acacb1" d="M231.5 73.5c.904.709 1.237 1.709 1 3a60.94 60.94 0 0 0-11 .5c-2.694 3.55-6.028 6.05-10 7.5v-3c.722.418 1.222 1.084 1.5 2l7.5-7.5c4.133.094 7.799-.74 11-2.5z"/><path style="opacity:.855" fill="#7f8188" d="M451.5 78.5c2.087 1.085 3.42 2.751 4 5-2.087-1.085-3.42-2.751-4-5z"/><path style="opacity:1" fill="#2f2e3c" d="M109.5 78.5c3.462-.44 7.129-.44 11 0 .969.81 1.802 1.81 2.5 3 1.356-.88 2.856-1.213 4.5-1a39.673 39.673 0 0 1 12 3c4.466 2.704 9.466 4.038 15 4 1.291-.237 2.291.096 3 1-5.645-.49-11.145-.49-16.5 0-2.591-.655-5.258-1.655-8-3-2.061-.265-4.227.068-6.5 1v3a37.095 37.095 0 0 1 15 5 11.47 11.47 0 0 1 2.5-1 65.383 65.383 0 0 0 19.5 5.5c-.916.278-1.582.778-2 1.5a51.585 51.585 0 0 0-7-1c-1.599.268-2.932-.066-4-1-2.015-1.424-4.348-2.09-7-2-1.599.268-2.932-.066-4-1-2.015-1.424-4.348-2.09-7-2-4.261-.398-8.261-1.398-12-3-2.015-1.424-4.348-2.09-7-2-2.928-.065-5.595-.732-8-2-2.015-1.424-4.348-2.09-7-2l-1-2c1.643.02 2.976-.647 4-2a4.458 4.458 0 0 1 1.5 2 3.942 3.942 0 0 1 2-1 16.985 16.985 0 0 0 6.5 2c-.17-1.322.163-2.489 1-3.5l-3-1.5z"/><path style="opacity:1" fill="#707079" d="M120.5 78.5c2.652-.09 4.985.576 7 2-1.644-.213-3.144.12-4.5 1-.698-1.19-1.531-2.19-2.5-3z"/><path style="opacity:1" fill="#474550" d="M441.5 79.5c2.082 1.085 2.416 2.585 1 4.5a9.457 9.457 0 0 1 1.5 2.5c.914-1.154 1.747-.987 2.5.5-.671.986-.671 2.153 0 3.5-2.99-3.292-5.99-6.626-9-10 1.459.067 2.792-.266 4-1z"/><path style="opacity:1" fill="#343341" d="M83.5 80.5a79.198 79.198 0 0 1-13.5-3c-6.892.736-12.058 4.07-15.5 10-2.068 3.263-3.068 6.93-3 11-1.424 2.015-2.09 4.348-2 7v1a23.304 23.304 0 0 0-3 6c-.11-.617-.444-1.117-1-1.5a29.345 29.345 0 0 1 3-9.5c-2.63-1.505-2.297-2.171 1-2 .635-2.993.801-5.993.5-9-.422-1.926-1.59-2.926-3.5-3 .304-.65.637-1.317 1-2-.346-1.196-.846-1.196-1.5 0-.652-3.094-.319-6.094 1-9 2.234 1.205 3.9.539 5-2l1 2c.399-.228.565-.562.5-1 .543.06.876.393 1 1-2.336 1.573-2.336 2.906 0 4 2-1.333 3.667-3 5-5a66.778 66.778 0 0 0 5.5-2c2.734.862 2.901 1.695.5 2.5 5.033.171 10.033.671 15 1.5.84 1.235 1.84 2.235 3 3z"/><path style="opacity:.816" fill="#84848a" d="M259.5 80.5c-2.015 1.424-4.348 2.09-7 2 2.015-1.424 4.348-2.09 7-2z"/><path style="opacity:1" fill="#282736" d="M270.5 78.5a32.438 32.438 0 0 1 8 .5c3.044.359 3.378 1.025 1 2 4.586.197 9.086.697 13.5 1.5l1-1a13.194 13.194 0 0 0 5.5 4.5c-7.913.814-15.746.647-23.5-.5-1.688 1.545-3.688 2.545-6 3l-1-2c-1.085 1.236-1.918 2.569-2.5 4-.667 0-1 .333-1 1h-16c-.876.13-1.543-.203-2-1 .777-2.038 1.943-2.705 3.5-2 .317-1.8.984-2.134 2-1a23.625 23.625 0 0 0 10-5 4.934 4.934 0 0 0 .5-3c2.217-.869 4.55-1.202 7-1z"/><path style="opacity:.035" fill="#a5a2b0" d="M325.5 81.5c2.652-.09 4.985.576 7 2-2.652.09-4.985-.576-7-2z"/><path style="opacity:.433" fill="#aaaaae" d="M363.5 80.5c4.482.826 9.149 1.326 14 1.5a38.47 38.47 0 0 1 5 5.5c-2.386-.873-4.386-2.373-6-4.5a100.201 100.201 0 0 1-14-1.5c.124-.607.457-.94 1-1z"/><path style="opacity:.729" fill="#909098" d="M44.5 79.5c.09 2.652-.576 4.986-2 7-.09-2.652.576-4.986 2-7z"/><path style="opacity:1" fill="#63636c" d="M87.5 81.5c3.307.55 6.64.884 10 1l1 2c-3.979-.242-7.646-1.242-11-3z"/><path style="opacity:.816" fill="#838188" d="M252.5 82.5c-4.733 2.244-9.733 3.911-15 5 4.585-2.64 9.585-4.306 15-5z"/><path style="opacity:.502" fill="#a1a0a5" d="M386.5 80.5c-.095 2.286-.762 4.286-2 6v-4l2-2z"/><path style="opacity:1" fill="#2a2936" d="M263.5 79.5a4.934 4.934 0 0 1-.5 3 23.625 23.625 0 0 1-10 5c-1.016-1.134-1.683-.8-2 1-1.557-.705-2.723-.038-3.5 2 .457.797 1.124 1.13 2 1-1.442 1.32-2.108 2.986-2 5h-1a41.347 41.347 0 0 0-10 2c-2.015-1.424-4.348-2.09-7-2a51.19 51.19 0 0 1-4-2.5c.556-.383.889-.883 1-1.5 1.014-1.174 2.347-1.84 4-2 2.991.334 5.324-.666 7-3 5.267-1.089 10.267-2.756 15-5 2.652.09 4.985-.576 7-2 1.068-.934 2.401-1.268 4-1z"/><path style="opacity:1" fill="#252536" d="M335.5 87.5c3.235 1.502 5.568 3.336 7 5.5 4.023.145 7.856.978 11.5 2.5.684 1.284.517 2.45-.5 3.5a31.774 31.774 0 0 1-7 2.5c-.526-1.73-1.526-3.064-3-4-1.411-2.039-3.411-3.039-6-3 .146-2.442-.687-3.11-2.5-2-4.652-1.683-9.485-2.35-14.5-2v-3a40.939 40.939 0 0 1-9-.5l1-1c-1.544-.29-2.877-.956-4-2 2.053-.325 4.053.009 6 1-1.196.654-1.196 1.154 0 1.5 1.188-1.34 2.688-2.007 4.5-2 2.539 1.102 5.039 1.102 7.5 0 2.859 1.551 5.859 2.551 9 3z"/><path style="opacity:.878" fill="#7a7a81" d="M455.5 83.5c2.087 1.085 3.42 2.751 4 5-2.087-1.085-3.42-2.751-4-5z"/><path style="opacity:.604" fill="#97979e" d="M98.5 84.5c2.652-.09 4.985.576 7 2-2.652.09-4.985-.576-7-2z"/><path style="opacity:.984" fill="#82828a" d="M139.5 83.5c5.222.887 10.222 2.22 15 4-5.534.038-10.534-1.296-15-4z"/><path style="opacity:1" fill="#2b2a38" d="m445.5 73.5 4 3c1 .333 1.667 1 2 2 .58 2.249 1.913 3.915 4 5 .58 2.249 1.913 3.915 4 5 .238 1.904 1.238 3.238 3 4 1.406.473 2.073 1.473 2 3-.958-.453-1.792-1.12-2.5-2l-1 5c-1.113-1.26-1.28-2.427-.5-3.5a9.465 9.465 0 0 1-2.5-1.5 15.252 15.252 0 0 1-1.5 4.5 85.272 85.272 0 0 1 5 13.5c-1.826-1.647-3.16-3.647-4-6-.054-2.132-1.054-3.465-3-4a39.407 39.407 0 0 1-5-7c-.054-2.132-1.054-3.465-3-4-.671-1.347-.671-2.514 0-3.5-.753-1.487-1.586-1.654-2.5-.5a9.457 9.457 0 0 0-1.5-2.5c1.416-1.915 1.082-3.415-1-4.5-2.326-1.19-3.493-3.19-3.5-6-1.073.78-2.24.613-3.5-.5 1.167-.5 2-1.333 2.5-2.5 1.066 1.6 2.566 2.6 4.5 3 1.365-1.307 2.698-1.307 4 0z"/><path style="opacity:1" fill="#262535" d="M157.5 88.5a31.91 31.91 0 0 1 1.5 6c4.904-1.082 9.737-.082 14.5 3a3.647 3.647 0 0 1-1 1.5c1.786.196 3.119 1.029 4 2.5a84.85 84.85 0 0 1-7 1h-4c-1.171-.845-2.505-1.511-4-2 .418-.722 1.084-1.222 2-1.5a65.383 65.383 0 0 1-19.5-5.5 11.47 11.47 0 0 0-2.5 1 37.095 37.095 0 0 0-15-5v-3c2.273-.932 4.439-1.265 6.5-1 2.742 1.345 5.409 2.345 8 3 5.355-.49 10.855-.49 16.5 0z"/><path style="opacity:.58" fill="#909097" d="M113.5 88.5c2.652-.09 4.985.576 7 2-2.652.09-4.985-.576-7-2z"/><path style="opacity:.965" fill="#727178" d="M237.5 87.5c-1.676 2.334-4.009 3.334-7 3 2.009-1.565 4.343-2.565 7-3z"/><path style="opacity:.306" fill="#b3b2b7" d="M300.5 89.5a199.741 199.741 0 0 0-35 2c0-.667.333-1 1-1 11.409-2.132 22.743-2.466 34-1z"/><path style="opacity:.631" fill="#94959a" d="M54.5 87.5c-.555 3.897-1.555 7.564-3 11-.068-4.07.932-7.737 3-11z"/><path style="opacity:.639" fill="#7f7f86" d="M459.5 88.5c1.762.762 2.762 2.096 3 4-1.762-.762-2.762-2.096-3-4z"/><path style="opacity:.141" fill="#afafb6" d="M165.5 90.5c2.652-.09 4.985.576 7 2-2.652.09-4.985-.576-7-2z"/><path style="opacity:1" fill="#5a5a63" d="M249.5 91.5h15a341.935 341.935 0 0 0-17 5c-.108-2.014.558-3.68 2-5z"/><path style="opacity:.686" fill="#84848e" d="M446.5 90.5c1.946.535 2.946 1.868 3 4-1.474-.936-2.474-2.27-3-4z"/><path style="opacity:.776" fill="#939198" d="M325.5 93.5c3.662.223 6.995 1.223 10 3-3.662-.223-6.995-1.223-10-3z"/><path style="opacity:.671" fill="#82828a" d="M132.5 93.5c2.652-.09 4.985.576 7 2-2.652.09-4.985-.576-7-2z"/><path style="opacity:.667" fill="#8d8e91" d="M226.5 92.5c-.111.617-.444 1.117-1 1.5a51.19 51.19 0 0 0 4 2.5 17.758 17.758 0 0 1-7-1.5c.971-1.481 2.304-2.315 4-2.5z"/><path style="opacity:1" fill="#32313e" d="M336.5 84.5c8.547 2.609 16.547 6.275 24 11a5.575 5.575 0 0 0 1 3c2.683 1.01 5.349 2.01 8 3a146.57 146.57 0 0 1 18 14v1c-1.347-.671-2.514-.671-3.5 0l-3-5c-2.668 1.48-2.835 2.98-.5 4.5a4.934 4.934 0 0 1-3 .5 13.116 13.116 0 0 0-1-7c-2.37-1.598-4.036-1.098-5 1.5.593 1.882 1.927 2.882 4 3l-1 1c2.338 1.162 3.672 2.996 4 5.5 3.949.193 3.949.693 0 1.5.752.671 1.086 1.504 1 2.5a5999.972 5999.972 0 0 0-9-8c-.762-1.762-2.096-2.762-4-3-.762-1.762-2.096-2.762-4-3-.473-1.406-1.473-2.073-3-2-.992.172-1.658-.162-2-1-.473-1.406-1.473-2.073-3-2-2.985-.826-5.651-2.159-8-4a31.774 31.774 0 0 0 7-2.5c1.017-1.05 1.184-2.216.5-3.5-3.644-1.522-7.477-2.355-11.5-2.5-1.432-2.164-3.765-3.998-7-5.5.086-.996-.248-1.83-1-2.5a2.427 2.427 0 0 1 2-.5z"/><path style="opacity:.306" fill="#adadb4" d="M184.5 95.5c2.652-.09 4.985.576 7 2-2.652.09-4.985-.576-7-2z"/><path style="opacity:1" fill="#75747b" d="M246.5 96.5c-3.056 2.586-6.389 3.253-10 2a41.347 41.347 0 0 1 10-2z"/><path style="opacity:.624" fill="#8d8b93" d="M143.5 96.5c2.652-.09 4.985.576 7 2-2.652.09-4.985-.576-7-2z"/><path style="opacity:.588" fill="#94929a" d="M229.5 96.5c2.652-.09 4.985.576 7 2-2.652.09-4.985-.576-7-2z"/><path style="opacity:1" fill="#5c5c66" d="M337.5 97.5c2.241.454 4.241.454 6 0 1.474.936 2.474 2.27 3 4-3.244-.963-6.244-2.296-9-4z"/><path style="opacity:1" fill="#5d5d64" d="M360.5 95.5c3.554 1.27 6.554 3.27 9 6-2.651-.99-5.317-1.99-8-3a5.575 5.575 0 0 1-1-3z"/><path style="opacity:.612" fill="#97969c" d="M192.5 97.5c3.616.4 6.95 1.4 10 3-3.714-.09-7.048-1.09-10-3z"/><path style="opacity:.741" fill="#8d8c95" d="M154.5 99.5c2.361.174 4.694.507 7 1 1.495.489 2.829 1.155 4 2-3.979-.242-7.646-1.242-11-3z"/><path style="opacity:.584" fill="#8c8e93" d="M40.5 94.5v4l-2 3c-.09-2.652.576-4.986 2-7z"/><path style="opacity:.035" fill="#bfbfc5" d="M51.5 98.5c.09 2.652-.576 4.985-2 7-.09-2.652.576-4.985 2-7z"/><path style="opacity:.878" fill="#858d94" d="M454.5 101.5c1.946.535 2.946 1.868 3 4-1.474-.936-2.474-2.27-3-4z"/><path style="opacity:.994" fill="#565661" d="M464.5 95.5c2.777 2.45 4.777 5.451 6 9a14.386 14.386 0 0 0-4.5 0c-.21-1.303-.043-2.636.5-4a319.756 319.756 0 0 1-2-5z"/><path style="opacity:1" fill="#252435" d="M46.5 87.5c1.91.074 3.078 1.074 3.5 3a29.134 29.134 0 0 1-.5 9c-3.297-.171-3.63.495-1 2a29.345 29.345 0 0 0-3 9.5c.556.383.89.883 1 1.5v2c-1.235-.221-2.235-.888-3-2-1.584 2.452-1.917 4.952-1 7.5-1.256.417-1.923 1.25-2 2.5a20.676 20.676 0 0 0-1 5h-3c-.416-.625.584-4.125 3-10.5l-2-1c2.287-1.427 2.62-3.261 1-5.5a51.069 51.069 0 0 1 3-10.5c-.556-.383-.89-.883-1-1.5v-2c4.227-.793 5.56-3.127 4-7 .355-1.022 1.022-1.689 2-2z"/><path style="opacity:.561" fill="#93929a" d="M207.5 101.5c2.286.095 4.286.762 6 2-2.398.241-4.398-.426-6-2z"/><path style="opacity:.592" fill="#96969f" d="M165.5 102.5h4l3 2c-2.652.09-4.985-.576-7-2z"/><path style="opacity:1" fill="#262534" d="M464.5 95.5a319.756 319.756 0 0 0 2 5c-.543 1.364-.71 2.697-.5 4a14.386 14.386 0 0 1 4.5 0c1.035 1.705 1.035 3.372 0 5 1.935.568 3.268 1.735 4 3.5-.687 1.162-.853 2.328-.5 3.5 1.145-1.184 2.312-1.184 3.5 0a35.951 35.951 0 0 1-4 7c-2.548-2.186-4.381-4.853-5.5-8-1.724 2.67-2.891 2.337-3.5-1 .957-3.017-.043-4.017-3-3a85.272 85.272 0 0 0-5-13.5 15.252 15.252 0 0 0 1.5-4.5 9.465 9.465 0 0 0 2.5 1.5c-.78 1.073-.613 2.24.5 3.5l1-5c.708.88 1.542 1.547 2.5 2z"/><path style="opacity:1" fill="#302f3d" d="M157.5 88.5c2.928.065 5.595.732 8 2 2.015 1.424 4.348 2.09 7 2 4.261.398 8.261 1.398 12 3 2.015 1.424 4.348 2.09 7 2h1c2.952 1.91 6.286 2.91 10 3 1.792-.134 3.458.199 5 1 1.602 1.574 3.602 2.241 6 2 3.13.2 6.13.866 9 2 1.418 1.808 3.418 2.475 6 2 1.599-.268 2.932.066 4 1a895.436 895.436 0 0 1-7 4.5l3 1c-2.021.14-3.855.307-5.5.5-.811-2.17-2.145-3.837-4-5l-1.5.5c4 1.333 4 2.667 0 4-2.003-.419-4.003-1.253-6-2.5-2.019.633-2.353 1.633-1 3-1.599.268-2.932-.066-4-1-.111-.617-.444-1.117-1-1.5-3.327-.61-6.661-1.11-10-1.5-1.599.268-2.932-.066-4-1-2.015-1.424-4.348-2.09-7-2-4.261-.398-8.261-1.398-12-3l-3-2a84.85 84.85 0 0 0 7-1c-.881-1.471-2.214-2.304-4-2.5a3.647 3.647 0 0 0 1-1.5c-4.763-3.082-9.596-4.082-14.5-3a31.91 31.91 0 0 0-1.5-6z"/><path style="opacity:.933" fill="#6f6d77" d="M222.5 105.5c2.198.375 4.198 1.042 6 2-2.582.475-4.582-.192-6-2z"/><path style="opacity:.482" fill="#909598" d="M354.5 105.5c1.527-.073 2.527.594 3 2-1.527.073-2.527-.594-3-2z"/><path style="opacity:.729" fill="#939299" d="M37.5 105.5c-.09 3.714-1.09 7.048-3 10 .4-3.616 1.4-6.95 3-10z"/><path style="opacity:.647" fill="#8f8d95" d="M184.5 107.5c2.652-.09 4.985.576 7 2-2.652.09-4.985-.576-7-2z"/><path style="opacity:.412" fill="#9c9ba2" d="M232.5 108.5c2.652-.09 4.985.576 7 2-2.652.09-4.985-.576-7-2z"/><path style="opacity:1" fill="#565560" d="M470.5 104.5c3.123 3.476 5.457 7.476 7 12-1.188-1.184-2.355-1.184-3.5 0-.353-1.172-.187-2.338.5-3.5-.732-1.765-2.065-2.932-4-3.5 1.035-1.628 1.035-3.295 0-5z"/><path style="opacity:.557" fill="#a3a2a8" d="M49.5 106.5c-.4 3.616-1.4 6.95-3 10v-4a23.304 23.304 0 0 1 3-6z"/><path style="opacity:1" fill="#292837" d="M232.5 108.5c2.015 1.424 4.348 2.09 7 2h2v1a2.428 2.428 0 0 0-2 .5 30.423 30.423 0 0 1 8 4.5c-3.575 2.41-7.242 3.743-11 4a51.569 51.569 0 0 0-7-1c-1.599.268-2.932-.066-4-1-2.015-1.424-4.348-2.09-7-2-2.928-.065-5.595-.732-8-2-1.353-1.367-1.019-2.367 1-3 1.997 1.247 3.997 2.081 6 2.5 4-1.333 4-2.667 0-4l1.5-.5c1.855 1.163 3.189 2.83 4 5 1.645-.193 3.479-.36 5.5-.5l-3-1a895.436 895.436 0 0 0 7-4.5z"/><path style="opacity:.584" fill="#84848f" d="M359.5 108.5c1.527-.073 2.527.594 3 2-1.527.073-2.527-.594-3-2z"/><path style="opacity:.7" fill="#8e8d92" d="M440.5 115.5v-5h-7c2.811-.975 5.811-1.642 9-2-.221 2.567-.888 4.901-2 7z"/><path style="opacity:1" fill="#5f5d66" d="M424.5 106.5c2.622 2.144 5.622 3.477 9 4h1c-2.193 1.297-4.527 1.297-7 0-1.326-1.142-2.326-2.476-3-4z"/><path style="opacity:1" fill="#6a6a70" d="M195.5 110.5c3.339.39 6.673.89 10 1.5.556.383.889.883 1 1.5-3.979-.242-7.646-1.242-11-3z"/><path style="opacity:.671" fill="#888693" d="M241.5 111.5v-1c2.198.375 4.198 1.042 6 2-2.121.175-4.121-.159-6-1z"/><path style="opacity:.694" fill="#848388" d="M362.5 110.5c1.904.238 3.238 1.238 4 3-1.904-.238-3.238-1.238-4-3z"/><path style="opacity:1" fill="#2b2a38" d="M424.5 106.5c.674 1.524 1.674 2.858 3 4 2.473 1.297 4.807 1.297 7 0h6v5c-2.534 2.416-2.534 4.75 0 7 1.508 1.681 2.508 3.681 3 6-4.147.825-8.481 1.325-13 1.5-1.393 1.171-2.227 2.671-2.5 4.5-1.292-1.291-2.458-1.291-3.5 0a27.195 27.195 0 0 0-3-5 64.735 64.735 0 0 0-9-6c-1.333-1-1.333-2 0-3 1.527.073 2.527-.594 3-2 2.333-.333 3.667-1.667 4-4-.337-3.808.163-7.474 1.5-11a30.233 30.233 0 0 0 3.5 3z"/><path style="opacity:.749" fill="#909094" d="M366.5 113.5c1.904.238 3.238 1.238 4 3-1.904-.238-3.238-1.238-4-3z"/><path style="opacity:.71" fill="#84828b" d="M252.5 113.5c4.573.888 8.906 2.221 13 4-1.792.134-3.458-.199-5-1-3.136-.103-5.802-1.103-8-3z"/><path style="opacity:.631" fill="#a3a3a7" d="M387.5 115.5c2.087 1.085 3.42 2.751 4 5-1.667-1-3-2.333-4-4v-1z"/><path style="opacity:.686" fill="#88888f" d="M419.5 114.5c-.333 2.333-1.667 3.667-4 4 1-1.667 2.333-3 4-4z"/><path style="opacity:.682" fill="#7e7c84" d="M218.5 116.5c2.652-.09 4.985.576 7 2-2.652.09-4.985-.576-7-2z"/><path style="opacity:.112" fill="#a8a8ac" d="M266.5 117.5c2.652-.09 4.985.576 7 2-2.652.09-4.985-.576-7-2z"/><path style="opacity:1" fill="#2e2d3a" d="M241.5 111.5c1.879.841 3.879 1.175 6 1 1.792-.134 3.458.199 5 1 2.198 1.897 4.864 2.897 8 3-.113 3.827.887 7.327 3 10.5a8.43 8.43 0 0 1-4 .5 39.68 39.68 0 0 1-12-3c-3.299-1.983-6.966-2.983-11-3v-1c3.758-.257 7.425-1.59 11-4a30.423 30.423 0 0 0-8-4.5 2.428 2.428 0 0 1 2-.5z"/><path style="opacity:.788" fill="#909096" d="M46.5 117.5c-.4 3.616-1.4 6.95-3 10a70.523 70.523 0 0 1 1.5-9c.383-.556.883-.889 1.5-1z"/><path style="opacity:.773" fill="#828088" d="M415.5 118.5c-.473 1.406-1.473 2.073-3 2 .473-1.406 1.473-2.073 3-2z"/><path style="opacity:.624" fill="#88888e" d="M229.5 119.5c2.361.174 4.694.507 7 1v1c-2.652.09-4.985-.576-7-2z"/><path style="opacity:.435" fill="#a5a4a8" d="M412.5 120.5c-1.333 1-1.333 2 0 3-2.667-1-2.667-2 0-3z"/><path style="opacity:.718" fill="#909099" d="M440.5 115.5c-.582 2.498-.582 4.831 0 7-2.534-2.25-2.534-4.584 0-7z"/><path style="opacity:.82" fill="#85838b" d="M236.5 121.5c4.034.017 7.701 1.017 11 3-3.927-.426-7.593-1.426-11-3z"/><path style="opacity:1" fill="#3b3a46" d="M260.5 116.5c1.542.801 3.208 1.134 5 1h1c2.015 1.424 4.348 2.09 7 2 3.927.426 7.593 1.426 11 3-2.619-.268-5.119.065-7.5 1a9.454 9.454 0 0 0-2.5-1.5l1-1c-1-.667-2-.667-3 0-.388 1.525-.388 3.192 0 5a32.065 32.065 0 0 1-4 2.5 31.147 31.147 0 0 1 2 2c-3.979-.242-7.646-1.242-11-3a8.43 8.43 0 0 0 4-.5c-2.113-3.173-3.113-6.673-3-10.5z"/><path style="opacity:1" fill="#3c3b47" d="M477.5 116.5c3.746 5.535 6.746 11.535 9 18-1.548-.321-2.215-1.321-2-3h-3c.375-2.897-.125-5.563-1.5-8-.667 1.333-1.333 1.333-2 0-.526 2.05-1.359 3.883-2.5 5.5a15.256 15.256 0 0 1 1.5 4.5c.667 1.333 1.333 1.333 2 0 .684 1.284.517 2.451-.5 3.5 1.238-.077 2.238.089 3 .5-1.938 4.212-1.938 8.545 0 13a25.965 25.965 0 0 1 5 5 44.093 44.093 0 0 0-3 2 9.82 9.82 0 0 0-3-4 298.207 298.207 0 0 0-19-42c2.957-1.017 3.957-.017 3 3 .609 3.337 1.776 3.67 3.5 1 1.119 3.147 2.952 5.814 5.5 8a35.951 35.951 0 0 0 4-7z"/><path style="opacity:.839" fill="#86858c" d="M395.5 124.5c2.087 1.085 3.42 2.751 4 5-2.087-1.085-3.42-2.751-4-5z"/><path style="opacity:1" fill="#2c2b3b" d="M295.5 125.5c4.261.398 8.261 1.398 12 3-1.855-.228-2.688.439-2.5 2l1-1c1.514 2.266 3.681 3.432 6.5 3.5-.84 1.666-.34 1.833 1.5.5a43.897 43.897 0 0 0 10.5 3v3c-7.499-1.029-14.999-3.029-22.5-6-.873.235-1.707.569-2.5 1-1.006-.438-1.006-1.104 0-2l-4-3c-1.196.346-1.196.846 0 1.5a28.931 28.931 0 0 0-4 1.5c-2.371-2.273-5.038-2.606-8-1a31.94 31.94 0 0 0-9-3.5 12.17 12.17 0 0 0 4.5-3.5c4.271.141 8.437 1.475 12.5 4 1.006-.438 1.006-1.104 0-2 1.189-.929 2.522-1.262 4-1z"/><path style="opacity:1" fill="#272634" d="M387.5 116.5c1 1.667 2.333 3 4 4 1.667 1 3 2.333 4 4 .58 2.249 1.913 3.915 4 5 .58 2.249 1.913 3.915 4 5-.073 1.527.594 2.527 2 3-.073 1.527.594 2.527 2 3-.086.996.248 1.829 1 2.5a8.43 8.43 0 0 1-4 .5h-1c-1.602-1.574-3.602-2.241-6-2a315.024 315.024 0 0 0-5-3.5 4.457 4.457 0 0 0 2-1.5 21.659 21.659 0 0 1-6.5-4c-.435-5.197-3.268-7.863-8.5-8 .086-.996-.248-1.829-1-2.5 3.949-.807 3.949-1.307 0-1.5-.328-2.504-1.662-4.338-4-5.5l1-1c-2.073-.118-3.407-1.118-4-3 .964-2.598 2.63-3.098 5-1.5a13.116 13.116 0 0 1 1 7 4.934 4.934 0 0 0 3-.5c-2.335-1.52-2.168-3.02.5-4.5l3 5c.986-.671 2.153-.671 3.5 0z"/><path style="opacity:.698" fill="#7f7e85" d="M307.5 128.5c2.567.221 4.901.888 7 2-2.728.329-5.062-.337-7-2z"/><path style="opacity:.741" fill="#616069" d="M443.5 128.5c.543.06.876.393 1 1-7.547-.323-13.547 2.51-18 8.5-.937.692-1.603.525-2-.5v-3c1.042-1.291 2.208-1.291 3.5 0 .273-1.829 1.107-3.329 2.5-4.5 4.519-.175 8.853-.675 13-1.5z"/><path style="opacity:.635" fill="#86858d" d="M32.5 124.5c.09 2.652-.576 4.985-2 7-.09-2.652.576-4.985 2-7z"/><path style="opacity:1" fill="#2a2938" d="M40.5 98.5c.11.617.444 1.117 1 1.5a51.069 51.069 0 0 0-3 10.5c1.62 2.239 1.287 4.073-1 5.5l2 1c-2.416 6.375-3.416 9.875-3 10.5h3a20.676 20.676 0 0 1 1-5c.727 1.823 1.06 3.657 1 5.5-2.539 1.099-3.205 2.766-2 5l-2 4c1.09 2.279.756 4.446-1 6.5-1.623-.991-2.623-.324-3 2 .445 2.555.445 5.222 0 8-1.04 2.491-1.874 2.491-2.5 0-.743 2.145-1.576 2.311-2.5.5a11.292 11.292 0 0 1 2-4c-1.814-2.481-2.48-5.315-2-8.5l2-10c1.424-2.015 2.09-4.348 2-7 .2-3.13.866-6.13 2-9 1.91-2.952 2.91-6.286 3-10-.268-1.599.066-2.932 1-4l2-3z"/><path style="opacity:.643" fill="#8c8c95" d="M270.5 130.5c2.652-.09 4.985.576 7 2-2.652.09-4.985-.576-7-2z"/><path style="opacity:.396" fill="#a2a1a6" d="M318.5 131.5c2.652-.09 4.985.576 7 2-2.652.09-4.985-.576-7-2z"/><path style="opacity:.604" fill="#908e97" d="M399.5 129.5c2.087 1.085 3.42 2.751 4 5-2.087-1.085-3.42-2.751-4-5z"/><path style="opacity:.725" fill="#8e8e95" d="M281.5 133.5c2.652-.09 4.985.576 7 2-2.652.09-4.985-.576-7-2z"/><path style="opacity:1" fill="#4b4a53" d="M379.5 124.5c5.232.137 8.065 2.803 8.5 8a21.659 21.659 0 0 0 6.5 4 4.457 4.457 0 0 1-2 1.5c1.733 1.189 3.4 2.356 5 3.5a8.43 8.43 0 0 1-4-.5 474.528 474.528 0 0 0-14-16.5z"/><path style="opacity:.431" fill="#9f9fa4" d="M421.5 129.5a27.195 27.195 0 0 1 3 5v3c-1.767-2.292-2.767-4.958-3-8z"/><path style="opacity:.922" fill="#7f7e86" d="M292.5 136.5c4.034.017 7.701 1.017 11 3-3.927-.426-7.593-1.426-11-3z"/><path style="opacity:.58" fill="#8a8990" d="M403.5 134.5c1.406.473 2.073 1.473 2 3-1.406-.473-2.073-1.473-2-3z"/><path style="opacity:.051" fill="#c4c3cb" d="m30.5 131.5-2 10-2 4c.11-5.122 1.444-9.788 4-14z"/><path style="opacity:1" fill="#302f3c" d="M284.5 122.5c3.979.242 7.646 1.242 11 3-1.478-.262-2.811.071-4 1 1.006.896 1.006 1.562 0 2-4.063-2.525-8.229-3.859-12.5-4a12.17 12.17 0 0 1-4.5 3.5 31.94 31.94 0 0 1 9 3.5c2.962-1.606 5.629-1.273 8 1a28.931 28.931 0 0 1 4-1.5c-1.196-.654-1.196-1.154 0-1.5l4 3c-1.006.896-1.006 1.562 0 2a11.456 11.456 0 0 1 2.5-1c7.501 2.971 15.001 4.971 22.5 6v-3a43.897 43.897 0 0 1-10.5-3c-1.84 1.333-2.34 1.166-1.5-.5-2.819-.068-4.986-1.234-6.5-3.5l-1 1c-.188-1.561.645-2.228 2.5-2 1.938 1.663 4.272 2.329 7 2 1.599-.268 2.932.066 4 1 2.015 1.424 4.348 2.09 7 2 8.982 1.556 17.649 3.889 26 7a5.727 5.727 0 0 0 1 3c-1.333 2-3 3.667-5 5-1.291-.237-2.291.096-3 1a51.569 51.569 0 0 0-7-1c-1.599.268-2.932-.066-4-1-3.299-1.983-6.966-2.983-11-3h-1c-1.938-1.663-4.272-2.329-7-2-2.015-1.424-4.348-2.09-7-2-1.599.268-2.932-.066-4-1-3.299-1.983-6.966-2.983-11-3-1.599.268-2.932-.066-4-1-2.015-1.424-4.348-2.09-7-2-1.599.268-2.932-.066-4-1-2.015-1.424-4.348-2.09-7-2a31.147 31.147 0 0 0-2-2 32.065 32.065 0 0 0 4-2.5c-.388-1.808-.388-3.475 0-5 1-.667 2-.667 3 0l-1 1c.916.374 1.75.874 2.5 1.5 2.381-.935 4.881-1.268 7.5-1z"/><path style="opacity:.82" fill="#88888e" d="M486.5 134.5c1.037 1.43 1.704 3.097 2 5-1.713-1.135-2.38-2.802-2-5z"/><path style="opacity:.592" fill="#828188" d="M405.5 137.5c1.406.473 2.073 1.473 2 3-1.406-.473-2.073-1.473-2-3z"/><path style="opacity:.549" fill="#95949a" d="M307.5 140.5c2.652-.09 4.985.576 7 2-2.652.09-4.985-.576-7-2z"/><path style="opacity:1" fill="#5e5c67" d="M351.5 140.5c3.979.242 7.646 1.242 11 3a73.18 73.18 0 0 1-10 0 5.727 5.727 0 0 1-1-3z"/><path style="opacity:.749" fill="#97969f" d="M397.5 141.5c2.398-.241 4.398.426 6 2-2.286-.095-4.286-.762-6-2z"/><path style="opacity:.659" fill="#8c8d93" d="M40.5 139.5c-.221 2.567-.888 4.901-2 7-.33-2.728.337-5.062 2-7z"/><path style="opacity:.843" fill="#87878d" d="M314.5 142.5c2.728-.329 5.062.337 7 2-2.567-.221-4.901-.888-7-2z"/><path style="opacity:.62" fill="#949398" d="M407.5 140.5c2.141 1.255 2.807 2.922 2 5-1.836-.528-3.503-1.194-5-2a8.43 8.43 0 0 0 4-.5c-.752-.671-1.086-1.504-1-2.5z"/><path style="opacity:.941" fill="#76767e" d="M488.5 140.5c1.9 3.018 3.233 6.351 4 10-2.397-2.809-3.73-6.142-4-10z"/><path style="opacity:.922" fill="#78777f" d="M322.5 144.5c4.034.017 7.701 1.017 11 3-3.927-.426-7.593-1.426-11-3z"/><path style="opacity:1" fill="#292836" d="M486.5 134.5c-.38 2.198.287 3.865 2 5v1c.27 3.858 1.603 7.191 4 10v1c.223 3.662 1.223 6.995 3 10 .934 1.068 1.268 2.401 1 4 0 1.333-.667 2-2 2-2.015-1.424-4.348-2.09-7-2-3 .333-4.333-1-4-4v-4a44.093 44.093 0 0 1 3-2 25.965 25.965 0 0 0-5-5c-1.938-4.455-1.938-8.788 0-13-.762-.411-1.762-.577-3-.5 1.017-1.049 1.184-2.216.5-3.5-.667 1.333-1.333 1.333-2 0a15.256 15.256 0 0 0-1.5-4.5c1.141-1.617 1.974-3.45 2.5-5.5.667 1.333 1.333 1.333 2 0 1.375 2.437 1.875 5.103 1.5 8h3c-.215 1.679.452 2.679 2 3z"/><path style="opacity:1" fill="#474751" d="M362.5 143.5c7.973 1.242 15.64 3.242 23 6-3.533.449-6.866.782-10 1a41.385 41.385 0 0 0-15-5.5c.916-.278 1.582-.778 2-1.5z"/><path style="opacity:.043" fill="#b4b5ba" d="M38.5 146.5c-.065 2.928-.732 5.595-2 8-.206-2.995.46-5.662 2-8z"/><path style="opacity:.565" fill="#919099" d="M337.5 148.5c2.361.174 4.694.507 7 1v1c-2.652.09-4.985-.576-7-2z"/><path style="opacity:1" fill="#45444f" d="M347.5 148.5c4.555.989 8.888 2.823 13 5.5 3.053.179 6.053.679 9 1.5a31.147 31.147 0 0 1 2 2 209.492 209.492 0 0 1-27-7v-1c.709-.904 1.709-1.237 3-1z"/><path style="opacity:.024" fill="#dcdcdf" d="M26.5 145.5c-.475 3.584-1.475 6.917-3 10-.105-3.758.895-7.092 3-10z"/><path style="opacity:.929" fill="#63626a" d="M385.5 149.5c3.897.555 7.563 1.555 11 3-1.644-.214-3.144.12-4.5 1a413.312 413.312 0 0 0-6.5-4z"/><path style="opacity:1" fill="#282736" d="M362.5 143.5c-.418.722-1.084 1.222-2 1.5a41.385 41.385 0 0 1 15 5.5c3.134-.218 6.467-.551 10-1a413.312 413.312 0 0 1 6.5 4c1.356-.88 2.856-1.214 4.5-1 2.928.065 5.595.732 8 2 1.938 1.663 4.272 2.329 7 2 1.792-.134 3.458.199 5 1 2.821 2.212 6.155 3.212 10 3 1.714 1.238 3.714 1.905 6 2-.077 1.25-.744 2.083-2 2.5 2.069.324 2.402 1.158 1 2.5 2.789 4.245 1.456 5.911-4 5-.418-.722-1.084-1.222-2-1.5l2-1c-2.602-.935-4.102-2.768-4.5-5.5a7.248 7.248 0 0 1-2.5 2c-3.114-.369-6.114-.369-9 0a26.852 26.852 0 0 1-6-3.5c-1.735-.651-3.402-.485-5 .5a20.812 20.812 0 0 0-7.5-3c-.816 1.323-1.983 1.989-3.5 2-2.782-1.433-5.782-2.6-9-3.5l3-1a10.756 10.756 0 0 1-3-2.5c-1.771.535-2.104 1.369-1 2.5a31.6 31.6 0 0 1-8-.5 31.147 31.147 0 0 0-2-2 42.769 42.769 0 0 0-9-1.5c-4.112-2.677-8.445-4.511-13-5.5 2-1.333 3.667-3 5-5a73.18 73.18 0 0 0 10 0z"/><path style="opacity:.773" fill="#898990" d="M492.5 151.5c1.777 3.005 2.777 6.338 3 10-1.777-3.005-2.777-6.338-3-10z"/><path style="opacity:1" fill="#51505b" d="M389.5 162.5c-6.269-1.065-12.269-2.731-18-5a31.6 31.6 0 0 0 8 .5c-1.104-1.131-.771-1.965 1-2.5a10.756 10.756 0 0 0 3 2.5l-3 1c3.218.9 6.218 2.067 9 3.5z"/><path style="opacity:.671" fill="#7a7a84" d="M404.5 154.5c2.567.221 4.901.888 7 2-2.728.329-5.062-.337-7-2z"/><path style="opacity:.506" fill="#a5a5ac" d="M480.5 153.5a9.82 9.82 0 0 1 3 4v4c-1.371-2.436-2.371-5.103-3-8z"/><path style="opacity:.718" fill="#7c7b82" d="M416.5 157.5c3.525.71 6.858 1.71 10 3-3.845.212-7.179-.788-10-3z"/><path style="opacity:1" fill="#302f3c" d="M46.5 114.5v3c-.617.111-1.117.444-1.5 1a70.523 70.523 0 0 0-1.5 9c-.398 4.261-1.398 8.261-3 12-1.663 1.938-2.33 4.272-2 7-1.54 2.338-2.206 5.005-2 8 .237 1.291-.096 2.291-1 3-2.091 4.691-3.424 9.691-4 15v1h-1c-1.107-2.469-3.107-3.469-6-3a9.864 9.864 0 0 0-1-6c-1.26 1.853-1.26 3.686 0 5.5-1.192 4.344-3.192 8.178-6 11.5v-4c1.973-2.584 2.973-5.584 3-9v-1c1.031-2.461 1.698-5.127 2-8-.268-1.599.066-2.932 1-4 1.525-3.083 2.525-6.416 3-10l2-4c-.48 3.185.186 6.019 2 8.5a11.292 11.292 0 0 0-2 4c.924 1.811 1.757 1.645 2.5-.5.626 2.491 1.46 2.491 2.5 0 .445-2.778.445-5.445 0-8 .377-2.324 1.377-2.991 3-2 1.756-2.054 2.09-4.221 1-6.5l2-4c-1.205-2.234-.539-3.901 2-5 .06-1.843-.273-3.677-1-5.5.077-1.25.744-2.083 2-2.5-.917-2.548-.584-5.048 1-7.5.765 1.112 1.765 1.779 3 2z"/><path style="opacity:.063" fill="#acaab2" d="M35.5 157.5c-.576 5.309-1.909 10.309-4 15 .576-5.309 1.909-10.309 4-15z"/><path style="opacity:.384" fill="#9298a0" d="M426.5 160.5c3.979.242 7.646 1.242 11 3-1.792.134-3.458-.199-5-1-2.286-.095-4.286-.762-6-2z"/><path style="opacity:.043" fill="#dfdfe9" d="M22.5 159.5c-.302 2.873-.969 5.539-2 8-.39-3.053.277-5.72 2-8z"/><path style="opacity:1" fill="#3d3c48" d="M427.5 172.5a396.444 396.444 0 0 1-38-10c1.517-.011 2.684-.677 3.5-2a20.812 20.812 0 0 1 7.5 3c1.598-.985 3.265-1.151 5-.5a26.852 26.852 0 0 0 6 3.5c2.886-.369 5.886-.369 9 0a7.248 7.248 0 0 0 2.5-2c.398 2.732 1.898 4.565 4.5 5.5l-2 1c.916.278 1.582.778 2 1.5z"/><path style="opacity:.824" fill="#7e7c83" d="M487.5 165.5c2.652-.09 4.985.576 7 2-2.652.09-4.985-.576-7-2z"/><path style="opacity:.498" fill="#8d8c92" d="M448.5 166.5c2.928.065 5.595.732 8 2-2.995.206-5.662-.46-8-2z"/><path style="opacity:.239" fill="#b9b9bd" d="M496.5 165.5c.904.709 1.237 1.709 1 3-1.291.237-2.291-.096-3-1 1.333 0 2-.667 2-2z"/><path style="opacity:1" fill="#44434f" d="M432.5 162.5c1.542.801 3.208 1.134 5 1 3.979.242 7.646 1.242 11 3-1.643-.02-2.976.647-4 2a3.647 3.647 0 0 1-1.5-1c-.311 1.242.189 2.242 1.5 3a6.846 6.846 0 0 0-1 4c3.098-.087 3.432.413 1 1.5a38.715 38.715 0 0 1 5 2.5c-7.601-1.398-14.934-3.398-22-6 5.456.911 6.789-.755 4-5 1.402-1.342 1.069-2.176-1-2.5 1.256-.417 1.923-1.25 2-2.5z"/><path style="opacity:.831" fill="#727279" d="M460.5 169.5c2.567.221 4.901.888 7 2a18.453 18.453 0 0 1-6-.5c-.556-.383-.889-.883-1-1.5z"/><path style="opacity:.565" fill="#8f8f95" d="M469.5 171.5c1.903.296 3.57.963 5 2-2.198.38-3.865-.287-5-2z"/><path style="opacity:.549" fill="#b9b8be" d="M20.5 168.5c-.027 3.416-1.027 6.416-3 9 .027-3.416 1.027-6.416 3-9z"/><path style="opacity:.557" fill="#909197" d="M483.5 175.5c3.616.399 6.95 1.399 10 3-3.714-.09-7.048-1.09-10-3z"/><path style="opacity:1" fill="#2c2b39" d="M448.5 166.5c2.338 1.54 5.005 2.206 8 2 1.599-.268 2.932.066 4 1 .111.617.444 1.117 1 1.5 1.973.495 3.973.662 6 .5h2c1.135 1.713 2.802 2.38 5 2 3.13.2 6.13.866 9 2 2.952 1.91 6.286 2.91 10 3 1.599-.268 2.932.066 4 1 .342.838 1.008 1.172 2 1-1.228 1.51-1.228 3.01 0 4.5-1.444 1.064-3.111 1.564-5 1.5-8.418-.937-16.918-2.604-25.5-5-1.07.028-1.903.361-2.5 1h-2c-1.599.268-2.932-.066-4-1-2.015-1.424-4.348-2.09-7-2-1.599.268-2.932-.066-4-1a38.715 38.715 0 0 0-5-2.5c2.432-1.087 2.098-1.587-1-1.5a6.846 6.846 0 0 1 1-4c-1.311-.758-1.811-1.758-1.5-3 .414.457.914.791 1.5 1 1.024-1.353 2.357-2.02 4-2z"/><path style="opacity:.757" fill="#838389" d="M453.5 179.5c2.652-.09 4.985.576 7 2-2.652.09-4.985-.576-7-2z"/><path style="opacity:.376" fill="#9e9ea4" d="M497.5 179.5c2.652-.09 4.985.576 7 2-1.792.134-3.458-.199-5-1-.992.172-1.658-.162-2-1z"/><path style="opacity:.729" fill="#8d8c93" d="M464.5 182.5h2c1.903.296 3.57.963 5 2-2.652.09-4.985-.576-7-2z"/><path style="opacity:.029" fill="#d8d8db" d="M17.5 179.5v2a49.375 49.375 0 0 0-3 8c-.476-3.878.524-7.212 3-10z"/><path style="opacity:1" fill="#2a2937" d="M30.5 173.5a1130.212 1130.212 0 0 1-7 29v1c-1.533 2.134-2.2 4.634-2 7.5.006 2.033.339 3.866 1 5.5 1.038 1.43 1.704 3.097 2 5 .333 1 1 1.667 2 2v2c-1.703-1.16-2.37-.493-2 2h-3c.213 1.644-.12 3.144-1 4.5 4.025.873 7.025 3.039 9 6.5h-4a59.89 59.89 0 0 0-8-4c-4.3-4.273-7.3-9.273-9-15v-7c1.819-3.344 2.819-7.011 3-11 1.602-3.739 2.602-7.739 3-12a49.375 49.375 0 0 1 3-8c2.808-3.322 4.808-7.156 6-11.5-1.26-1.814-1.26-3.647 0-5.5a9.864 9.864 0 0 1 1 6c2.893-.469 4.893.531 6 3z"/><path style="opacity:1" fill="#343340" d="M499.5 180.5c1.542.801 3.208 1.134 5 1 3.13.2 6.13.866 9 2 1.602 1.574 3.602 2.241 6 2a61.399 61.399 0 0 1 13 3 17.042 17.042 0 0 0 7 3 106.33 106.33 0 0 1-20-4c-3.062 1.525-5.895 1.192-8.5-1-.688.832-.521 1.498.5 2a28.043 28.043 0 0 0 5 1.5l-9 3c.916.278 1.582.778 2 1.5-2.928-.065-5.595-.732-8-2-2.015-1.424-4.348-2.09-7-2-1.599.268-2.932-.066-4-1-2.015-1.424-4.348-2.09-7-2-4.261-.398-8.261-1.398-12-3-1.43-1.037-3.097-1.704-5-2 .597-.639 1.43-.972 2.5-1 8.582 2.396 17.082 4.063 25.5 5 1.889.064 3.556-.436 5-1.5-1.228-1.49-1.228-2.99 0-4.5z"/><path style="opacity:.541" fill="#939299" d="M513.5 183.5c2.286.095 4.286.762 6 2-2.398.241-4.398-.426-6-2z"/><path style="opacity:.184" fill="#c0c1c6" d="M30.5 173.5h1c-1.487 10.11-4.154 19.777-8 29 2.46-9.631 4.793-19.298 7-29z"/><path style="opacity:.796" fill="#7d7e84" d="M483.5 187.5c2.652-.09 4.985.576 7 2-2.652.09-4.985-.576-7-2z"/><path style="opacity:.345" fill="#b8b5bc" d="M532.5 188.5c1.701.466 3.201.466 4.5 0 2.415.632 4.582 1.632 6.5 3h-4a17.042 17.042 0 0 1-7-3z"/><path style="opacity:.635" fill="#87868d" d="M494.5 190.5c2.652-.09 4.985.576 7 2-2.652.09-4.985-.576-7-2z"/><path style="opacity:.494" fill="#cbcacf" d="M14.5 189.5c-.398 4.261-1.398 8.261-3 12 .084-4.337 1.084-8.337 3-12z"/><path style="opacity:1" fill="#292836" d="M539.5 191.5h4c3.659 1.842 7.659 2.842 12 3l2 2c-1.029.626-2.029 1.459-3 2.5a7.293 7.293 0 0 1 3 2c-2.66-.684-5.326-.517-8 .5a38.36 38.36 0 0 1 0-4.5c-2.933.076-5.933-.257-9-1l-2 1c1.333.667 1.333 1.333 0 2a19.936 19.936 0 0 0 9 2.5v3h-4c-3.585-2.306-7.585-3.639-12-4-1.599.268-2.932-.066-4-1-3.299-1.983-6.966-2.983-11-3-2.015-1.424-4.348-2.09-7-2-.418-.722-1.084-1.222-2-1.5l9-3a28.043 28.043 0 0 1-5-1.5c-1.021-.502-1.188-1.168-.5-2 2.605 2.192 5.438 2.525 8.5 1a106.33 106.33 0 0 0 20 4z"/><path style="opacity:.255" fill="#c2c3c8" d="M543.5 191.5c4.402-.192 8.402.808 12 3-4.341-.158-8.341-1.158-12-3z"/><path style="opacity:.627" fill="#85858d" d="M509.5 194.5c2.652-.09 4.985.576 7 2-2.652.09-4.985-.576-7-2z"/><path style="opacity:.875" fill="#7d7c84" d="M516.5 196.5c4.034.017 7.701 1.017 11 3-3.927-.426-7.593-1.426-11-3z"/><path style="opacity:.075" fill="#dddde2" d="M555.5 194.5c2.991-.334 5.324.666 7 3a20.69 20.69 0 0 0-5-1l-2-2z"/><path style="opacity:.165" fill="#ceced3" d="M562.5 197.5c3.438 1.193 5.771 3.526 7 7-2.667-2-5-4.333-7-7z"/><path style="opacity:.694" fill="#adacb4" d="M531.5 200.5c4.415.361 8.415 1.694 12 4-4.415-.361-8.415-1.694-12-4z"/><path style="opacity:1" fill="#272635" d="M557.5 196.5a20.69 20.69 0 0 1 5 1c2 2.667 4.333 5 7 7 .629 2.897 1.629 5.564 3 8v8c-.838.342-1.172 1.008-1 2-1.871.359-3.371 1.359-4.5 3 .333-4.099.999-6.766 2-8a6.547 6.547 0 0 0-3 3c-1.686-2.522-3.019-2.189-4 1-.383-.556-.883-.889-1.5-1-.419-5.859-3.085-10.192-8-13-1.159-1.75-2.826-2.75-5-3v-3a19.936 19.936 0 0 1-9-2.5c1.333-.667 1.333-1.333 0-2l2-1c3.067.743 6.067 1.076 9 1a38.36 38.36 0 0 0 0 4.5c2.674-1.017 5.34-1.184 8-.5a7.293 7.293 0 0 0-3-2c.971-1.041 1.971-1.874 3-2.5z"/><path style="opacity:.647" fill="#b7b7bc" d="M544.5 204.5h3c2.174.25 3.841 1.25 5 3-2.71-1.006-5.376-2.006-8-3z"/><path style="opacity:.153" fill="#bdbdc4" d="M569.5 204.5c2.482 2.003 3.482 4.669 3 8-1.371-2.436-2.371-5.103-3-8z"/><path style="opacity:.353" fill="#b9b9bd" d="M11.5 201.5c-.181 3.989-1.181 7.656-3 11 .017-4.034 1.017-7.701 3-11z"/><path style="opacity:.204" fill="#c1c1c7" d="M23.5 203.5c-.58 4.31-.913 8.643-1 13-.661-1.634-.994-3.467-1-5.5-.2-2.866.467-5.366 2-7.5z"/><path style="opacity:.004" fill="#cdccd1" d="M552.5 207.5c4.915 2.808 7.581 7.141 8 13-.221 2.567-.888 4.901-2 7 1.722-7.777-.278-14.444-6-20z"/><path style="opacity:.008" fill="#f0f0f3" d="M24.5 221.5c1.333 0 2 .667 2 2-1-.333-1.667-1-2-2z"/><path style="opacity:.012" fill="#d1d2d5" d="M26.5 223.5c1.69.356 2.69 1.356 3 3a5.727 5.727 0 0 0-3-1v-2z"/><path style="opacity:.196" fill="#c8c9ce" d="M8.5 219.5c1.7 5.727 4.7 10.727 9 15-3.985-1.821-6.819-4.821-8.5-9a18.438 18.438 0 0 1-.5-6z"/><path style="opacity:.553" fill="#939298" d="M29.5 226.5c2.897.629 5.564 1.629 8 3-3.216.155-5.883-.845-8-3z"/><path style="opacity:.412" fill="#c1c0c7" d="m558.5 227.5-2 12a23.317 23.317 0 0 1-3 6c1.066-6.276 2.733-12.276 5-18z"/><path style="opacity:1" fill="#282736" d="M571.5 222.5a132.657 132.657 0 0 0-2 10v1c-1.574 3.407-2.574 7.073-3 11-1.268 2.405-1.935 5.072-2 8-.617.111-1.117.444-1.5 1-.44 2.366-.94 4.699-1.5 7-2.598 1.804-4.765 4.138-6.5 7-.637-1.803-1.803-3.136-3.5-4a93.118 93.118 0 0 1 6-20.5 14.093 14.093 0 0 1-1-3.5l2-12c1.112-2.099 1.779-4.433 2-7 .617.111 1.117.444 1.5 1 .981-3.189 2.314-3.522 4-1a6.547 6.547 0 0 1 3-3c-1.001 1.234-1.667 3.901-2 8 1.129-1.641 2.629-2.641 4.5-3z"/><path style="opacity:.141" fill="#c5c3cc" d="M572.5 220.5c.614 4.532-.386 8.532-3 12 .54-3.365 1.206-6.698 2-10-.172-.992.162-1.658 1-2z"/><path style="opacity:1" fill="#615f68" d="M42.5 230.5c3.617.399 6.95 1.399 10 3a21.128 21.128 0 0 1-9-1 44.043 44.043 0 0 1-1-2z"/><path style="opacity:1" fill="#272535" d="M26.5 225.5c.671 1.347.671 2.514 0 3.5a50.315 50.315 0 0 0 10.5 2.5 33.19 33.19 0 0 1 6.5 3.5c1.94.743 3.774.576 5.5-.5 2.192 1.735 4.692 2.902 7.5 3.5 2.372 1.471 2.372 2.637 0 3.5a10.307 10.307 0 0 1-3-1c-3.14.589-6.14 1.256-9 2a19.222 19.222 0 0 0-6-1h-1c-1.938-1.663-4.272-2.329-7-2h-1v-1c-1.975-3.461-4.975-5.627-9-6.5.88-1.356 1.213-2.856 1-4.5h3c-.37-2.493.297-3.16 2-2z"/><path style="opacity:.671" fill="#87868d" d="M53.5 233.5c3.617.399 6.95 1.399 10 3-3.714-.09-7.047-1.09-10-3z"/><path style="opacity:.243" fill="#c0c0c4" d="M17.5 234.5a59.89 59.89 0 0 1 8 4c-3.519.241-6.186-1.093-8-4z"/><path style="opacity:1" fill="#2c2b38" d="M26.5 225.5a5.727 5.727 0 0 1 3 1c2.117 2.155 4.784 3.155 8 3 1.791-.134 3.458.199 5 1 .304.65.637 1.317 1 2a21.128 21.128 0 0 0 9 1h1c2.953 1.91 6.286 2.91 10 3 .11.617.444 1.117 1 1.5 4.68.837 9.346 1.671 14 2.5h1c.47 1.193 1.47 1.86 3 2 2.318.497 4.652.83 7 1 4.26.398 8.26 1.398 12 3v1c-3.256.273-6.256.606-9 1-1.285 2.077-1.618 4.077-1 6-2.347-1.184-4.347-2.851-6-5-4.27 1.062-8.604 1.062-13 0h-4c-.11-.617-.444-1.117-1-1.5-3.327-.61-6.66-1.11-10-1.5-4.26-.398-8.26-1.398-12-3 0-.667-.333-1-1-1 2.86-.744 5.86-1.411 9-2 .946.487 1.946.82 3 1 2.372-.863 2.372-2.029 0-3.5-2.808-.598-5.308-1.765-7.5-3.5-1.726 1.076-3.56 1.243-5.5.5a33.19 33.19 0 0 0-6.5-3.5 50.315 50.315 0 0 1-10.5-2.5c.671-.986.671-2.153 0-3.5z"/><path style="opacity:.529" fill="#ccc8d2" d="M25.5 238.5h4v1c-1.462.971-2.795.638-4-1z"/><path style="opacity:.635" fill="#7f7e85" d="M63.5 236.5c5.31.576 10.31 1.909 15 4-4.654-.829-9.32-1.663-14-2.5-.556-.383-.89-.883-1-1.5z"/><path style="opacity:.22" fill="#d1d2d9" d="M569.5 233.5c.374 4.147-.626 7.814-3 11 .426-3.927 1.426-7.593 3-11z"/><path style="opacity:.82" fill="#86858d" d="M30.5 239.5c2.728-.329 5.062.337 7 2-2.567-.221-4.9-.888-7-2z"/><path style="opacity:.914" fill="#69686f" d="M79.5 240.5c3.617.399 6.95 1.399 10 3a50.879 50.879 0 0 1-7-1c-1.53-.14-2.53-.807-3-2z"/><path style="opacity:.561" fill="#919099" d="M38.5 241.5c2.065.017 4.065.35 6 1 .667 0 1 .333 1 1-2.652.09-4.986-.576-7-2z"/><path style="opacity:1" fill="#5a5a62" d="M57.5 246.5c3.34.39 6.673.89 10 1.5.556.383.89.883 1 1.5-3.979-.242-7.646-1.242-11-3z"/><path style="opacity:.086" fill="#d5d6db" d="M566.5 244.5c.206 2.995-.46 5.662-2 8 .065-2.928.732-5.595 2-8z"/><path style="opacity:1" fill="#54535d" d="M101.5 246.5c3.897.555 7.563 1.555 11 3-2.714.25-5.381.417-8 .5l2-1c-1.284-.684-2.451-.517-3.5.5-.717-.544-1.217-1.211-1.5-2v-1z"/><path style="opacity:.373" fill="#98989c" d="M112.5 249.5c2.652-.09 4.985.576 7 2-2.652.09-4.985-.576-7-2z"/><path style="opacity:.624" fill="#86868c" d="M68.5 249.5h4l3 2c-2.652.09-4.986-.576-7-2z"/><path style="opacity:.749" fill="#a7a8af" d="M553.5 246.5c-.017 4.034-1.017 7.701-3 11 .242-3.979 1.242-7.646 3-11z"/><path style="opacity:1" fill="#3f3e49" d="M91.5 254.5c2.06 1.311 4.227 1.311 6.5 0a10.51 10.51 0 0 1 2.5 3h-2a193.445 193.445 0 0 1-23-6l-3-2c4.396 1.062 8.73 1.062 13 0 1.653 2.149 3.653 3.816 6 5z"/><path style="opacity:.792" fill="#9998a1" d="M564.5 252.5c-.302 2.873-.969 5.539-2 8h-1c.56-2.301 1.06-4.634 1.5-7 .383-.556.883-.889 1.5-1z"/><path style="opacity:1" fill="#282736" d="M101.5 247.5c.283.789.783 1.456 1.5 2 1.049-1.017 2.216-1.184 3.5-.5l-2 1c2.619-.083 5.286-.25 8-.5 2.015 1.424 4.348 2.09 7 2 3.098.256 6.098.922 9 2 1.181 1.567 2.847 2.401 5 2.5 1.155 2.215 2.655 4.048 4.5 5.5 1.762-.444 1.595-.944-.5-1.5 2.902-1.918 5.569-1.751 8 .5a6.846 6.846 0 0 1 4-1c2.722 1.722 4.722 4.055 6 7-2.642-.012-3.975 1.321-4 4l-8-1c-2.928-.065-5.595-.732-8-2-2.015-1.424-4.348-2.09-7-2-2.928-.065-5.595-.732-8-2-2.015-1.424-4.348-2.09-7-2-2.338-1.54-5.005-2.206-8-2-1.43-1.037-3.097-1.704-5-2a10.51 10.51 0 0 0-2.5-3c-2.273 1.311-4.44 1.311-6.5 0-.618-1.923-.285-3.923 1-6 2.744-.394 5.744-.727 9-1z"/><path style="opacity:.996" fill="#4c4b57" d="M128.5 253.5a192.62 192.62 0 0 1 21 6 6.846 6.846 0 0 0-4 1c-2.431-2.251-5.098-2.418-8-.5 2.095.556 2.262 1.056.5 1.5-1.845-1.452-3.345-3.285-4.5-5.5-2.153-.099-3.819-.933-5-2.5z"/><path style="opacity:.612" fill="#878590" d="M98.5 257.5h2c1.903.296 3.57.963 5 2-2.652.09-4.985-.576-7-2z"/><path style="opacity:.804" fill="#737379" d="M105.5 259.5c2.995-.206 5.662.46 8 2-2.928-.065-5.595-.732-8-2z"/><path style="opacity:.78" fill="#aaa9b1" d="M550.5 257.5c.206 2.995-.46 5.662-2 8-.206-2.995.46-5.662 2-8z"/><path style="opacity:.612" fill="#7d7c86" d="M113.5 261.5c2.652-.09 4.985.576 7 2-2.652.09-4.985-.576-7-2z"/><path style="opacity:.851" fill="#686871" d="M157.5 261.5c2.567.221 4.901.888 7 2a18.453 18.453 0 0 1-6-.5c-.556-.383-.889-.883-1-1.5z"/><path style="opacity:.012" fill="#e1e1e4" d="M561.5 260.5h1c.09 2.652-.576 4.985-2 7a51.569 51.569 0 0 1 1-7z"/><path style="opacity:.761" fill="#7b7d82" d="M128.5 265.5c2.652-.09 4.985.576 7 2-2.652.09-4.985-.576-7-2z"/><path style="opacity:.541" fill="#98979b" d="M89.5 266.5h-4v4c-1.293-1.864-1.293-3.864 0-6 1.525.494 2.859 1.161 4 2z"/><path style="opacity:1" fill="#494752" d="M171.5 265.5c5.239.841 10.239 2.174 15 4-3.665-1.152-7.331-1.319-11-.5l-3-1 1-1c-.916-.278-1.582-.778-2-1.5z"/><path style="opacity:.522" fill="#adabb3" d="M548.5 265.5c-.242 3.979-1.242 7.646-3 11 .017-4.034 1.017-7.701 3-11z"/><path style="opacity:.784" fill="#777880" d="m143.5 269.5 8 1 3 2c-3.979-.242-7.646-1.242-11-3z"/><path style="opacity:1" fill="#2b2a38" d="M149.5 259.5c2.841.06 5.507.726 8 2 .111.617.444 1.117 1 1.5 1.973.495 3.973.662 6 .5 2.567.221 4.901.888 7 2 .418.722 1.084 1.222 2 1.5l-1 1 3 1c3.669-.819 7.335-.652 11 .5 2.928.065 5.595.732 8 2v1a53.428 53.428 0 0 1-7 3 3.647 3.647 0 0 0 1 1.5c-1.399.595-2.732.428-4-.5-.886.825-1.219 1.825-1 3a1122.24 1122.24 0 0 0 16.5 3c2.63-.267 5.463-.434 8.5-.5l-3 1 9 3-3 1c1.237.232 2.237.732 3 1.5-1.792.134-3.458-.199-5-1-1.938-1.663-4.272-2.329-7-2-2.015-1.424-4.348-2.09-7-2-5.222-.887-10.222-2.221-15-4-2.015-1.424-4.348-2.09-7-2-2.928-.065-5.595-.732-8-2-2.015-1.424-4.348-2.09-7-2-1.599.268-2.932-.066-4-1l-3-2c.025-2.679 1.358-4.012 4-4-1.278-2.945-3.278-5.278-6-7z"/><path style="opacity:.243" fill="#c5c4ca" d="M560.5 267.5c.476 3.878-.524 7.212-3 10 .09-3.714 1.09-7.048 3-10z"/><path style="opacity:.808" fill="#8a8b90" d="M97.5 270.5c1.572 2.715 2.572 5.715 3 9-1.972-2.584-2.972-5.584-3-9z"/><path style="opacity:.769" fill="#77777e" d="M158.5 273.5c2.652-.09 4.985.576 7 2-2.652.09-4.985-.576-7-2z"/><path style="opacity:.973" fill="#6f6e76" d="M194.5 272.5v-1c3.927.426 7.593 1.426 11 3-3.915.253-7.581-.413-11-2z"/><path style="opacity:.741" fill="#67676e" d="M209.5 275.5c3.897.555 7.563 1.555 11 3-1.967-.239-3.801.094-5.5 1a25.229 25.229 0 0 0-5.5-4z"/><path style="opacity:.655" fill="#797881" d="M173.5 277.5c2.652-.09 4.985.576 7 2-2.652.09-4.985-.576-7-2z"/><path style="opacity:1" fill="#282835" d="M556.5 239.5a14.093 14.093 0 0 0 1 3.5 93.118 93.118 0 0 0-6 20.5c1.697.864 2.863 2.197 3.5 4 1.735-2.862 3.902-5.196 6.5-7a51.569 51.569 0 0 0-1 7c-1.91 2.952-2.91 6.286-3 10v1c-1.743 2.995-2.743 6.329-3 10-1.037 1.43-1.704 3.097-2 5-1.632-.325-2.632-1.325-3-3a123.948 123.948 0 0 1 2-7.5l-1-1.5a10.258 10.258 0 0 0-1.5 4c-2.772-4.047-4.272-3.38-4.5 2 .999 2.005.332 3.338-2 4v-4c1.983-3.299 2.983-6.966 3-11 1.758-3.354 2.758-7.021 3-11 1.54-2.338 2.206-5.005 2-8 1.983-3.299 2.983-6.966 3-11v-1a23.317 23.317 0 0 0 3-6z"/><path style="opacity:.592" fill="#888891" d="M87.5 277.5c1.574 1.602 2.24 3.602 2 6-1.238-1.714-1.905-3.714-2-6z"/><path style="opacity:.82" fill="#a6a5ac" d="M545.5 276.5c-.017 4.034-1.017 7.701-3 11 .017-4.034 1.017-7.701 3-11z"/><path style="opacity:1" fill="#2a2937" d="M194.5 272.5c3.419 1.587 7.085 2.253 11 2 1.599-.268 2.932.066 4 1a25.229 25.229 0 0 1 5.5 4c1.699-.906 3.533-1.239 5.5-1a132.125 132.125 0 0 1 19 5c4.293 2.244 8.96 3.577 14 4a10.515 10.515 0 0 0 2.5 3c1.049-1.017 2.216-1.184 3.5-.5-.837 1.011-1.17 2.178-1 3.5 2.427.023 4.76.523 7 1.5-1.333.667-1.333 1.333 0 2-5.638.161-11.304-1.005-17-3.5-5.747 2.504-9.581.837-11.5-5-1.154 2.457-2.488 2.457-4 0l-1 2c-.408-1.91-1.575-2.91-3.5-3-2.351.673-4.684 1.34-7 2a51.569 51.569 0 0 0-7-1c-.763-.768-1.763-1.268-3-1.5l3-1-9-3 3-1c-3.037.066-5.87.233-8.5.5a1122.24 1122.24 0 0 1-16.5-3c-.219-1.175.114-2.175 1-3 1.268.928 2.601 1.095 4 .5a3.647 3.647 0 0 1-1-1.5 53.428 53.428 0 0 0 7-3z"/><path style="opacity:.749" fill="#909097" d="M100.5 279.5c1.371 2.436 2.371 5.103 3 8-2.155-2.117-3.155-4.784-3-8z"/><path style="opacity:.227" fill="#bfc0c6" d="M557.5 278.5c.476 3.878-.524 7.212-3 10 .257-3.671 1.257-7.005 3-10z"/><path style="opacity:.612" fill="#89888c" d="M195.5 283.5c2.652-.09 4.985.576 7 2-2.652.09-4.985-.576-7-2z"/><path style="opacity:.71" fill="#78787e" d="M239.5 283.5c4.945.733 9.612 2.066 14 4-5.04-.423-9.707-1.756-14-4z"/><path style="opacity:.8" fill="#7a7a81" d="M202.5 285.5c2.728-.329 5.062.337 7 2-2.567-.221-4.901-.888-7-2z"/><path style="opacity:.561" fill="#878791" d="M89.5 283.5c1.574 1.602 2.24 3.602 2 6-1.238-1.714-1.905-3.714-2-6z"/><path style="opacity:.498" fill="#a2a2a7" d="M175.5 289.5c-1.291-.237-2.291.096-3 1-2.26-.738-2.427-1.738-.5-3a19.602 19.602 0 0 1 3.5 2z"/><path style="opacity:.761" fill="#787681" d="M214.5 288.5c2.361.174 4.694.507 7 1v1c-2.652.09-4.985-.576-7-2z"/><path style="opacity:.999" fill="#56545e" d="M94.5 297.5c-1.371-2.436-2.371-5.103-3-8 2.204-.851 3.537.149 4 3a9.107 9.107 0 0 0-1 5z"/><path style="opacity:.973" fill="#76767f" d="M103.5 288.5c1.565 2.009 2.565 4.343 3 7-2.334-1.676-3.334-4.009-3-7z"/><path style="opacity:.749" fill="#b3b2b9" d="M542.5 287.5v4a265.982 265.982 0 0 1-7 22 185.969 185.969 0 0 1 7-26z"/><path style="opacity:1" fill="#5a5a62" d="M225.5 291.5c3.339.39 6.673.89 10 1.5.556.383.889.883 1 1.5-3.979-.242-7.646-1.242-11-3z"/><path style="opacity:.706" fill="#76757b" d="M269.5 291.5c2.567.221 4.901.888 7 2-2.728.329-5.062-.337-7-2z"/><path style="opacity:1" fill="#2d2d3a" d="M253.5 287.5a72.071 72.071 0 0 1 16 4c1.938 1.663 4.272 2.329 7 2 1.599-.268 2.932.066 4 1-4.981.344-9.648.844-14 1.5a16.661 16.661 0 0 0 4 4c-1.237.232-2.237.732-3 1.5-3.098.087-3.432-.413-1-1.5l-1.5-.5c-3.135.932-6.301.932-9.5 0-2.928-.065-5.595-.732-8-2-2.015-1.424-4.348-2.09-7-2-1.599.268-2.932-.066-4-1-.111-.617-.444-1.117-1-1.5-3.327-.61-6.661-1.11-10-1.5-1.599.268-2.932-.066-4-1v-1c2.316-.66 4.649-1.327 7-2 1.925.09 3.092 1.09 3.5 3l1-2c1.512 2.457 2.846 2.457 4 0 1.919 5.837 5.753 7.504 11.5 5 5.696 2.495 11.362 3.661 17 3.5-1.333-.667-1.333-1.333 0-2a17.758 17.758 0 0 0-7-1.5c-.17-1.322.163-2.489 1-3.5-1.284-.684-2.451-.517-3.5.5a10.515 10.515 0 0 1-2.5-3z"/><path style="opacity:.212" fill="#bfc0c4" d="M554.5 288.5c.555 4.206-.445 7.873-3 11a19.22 19.22 0 0 1 1-6c.296-1.903.963-3.57 2-5z"/><path style="opacity:1" fill="#2a2938" d="M89.5 266.5h2v3h3a31.12 31.12 0 0 0 1 11 174.92 174.92 0 0 1 3.5 3l1 7c2.93 3.862 4.764 8.195 5.5 13 .158 1.819-.509 3.152-2 4 .522-3.979-.978-7.313-4.5-10-.816 1.323-1.983 1.989-3.5 2-.838-.342-1.172-1.008-1-2a9.107 9.107 0 0 1 1-5c-.463-2.851-1.796-3.851-4-3 .24-2.398-.426-4.398-2-6 .24-2.398-.426-4.398-2-6-1.112-2.099-1.778-4.433-2-7v-4h4z"/><path style="opacity:.322" fill="#a0a0a3" d="M158.5 297.5a5.727 5.727 0 0 0-3-1c1.513-2.548 2.513-2.215 3 1z"/><path style="opacity:.631" fill="#7d7e82" d="M240.5 295.5c2.652-.09 4.985.576 7 2-2.652.09-4.985-.576-7-2z"/><path style="opacity:1" fill="#62616b" d="M281.5 294.5c4.573.888 8.906 2.221 13 4-2.606-.636-5.106-.636-7.5 0-1.312-2.158-2.978-2.491-5-1a4.934 4.934 0 0 1-.5-3z"/><path style="opacity:.91" fill="#85848c" d="M190.5 296.5c2.743 1.739 4.743 4.073 6 7-2.743-1.739-4.743-4.073-6-7z"/><path style="opacity:.969" fill="#797880" d="M106.5 295.5c2.092 2.588 3.425 5.588 4 9-2.665-2.335-3.998-5.335-4-9z"/><path style="opacity:1" fill="#363541" d="M172.5 291.5a12.93 12.93 0 0 1 5 .5l-2 1c1.884.216 3.551.883 5 2-.551 1.398-.884 2.732-1 4a23.776 23.776 0 0 0 6 2.5c-.219-1.175.114-2.175 1-3 2.075 2.085 2.075 3.919 0 5.5a29.517 29.517 0 0 1 2.5 4.5l1-1c.495 1.973.662 3.973.5 6a95.175 95.175 0 0 1-18-22z"/><path style="opacity:.769" fill="#797880" d="M155.5 296.5c-1.411 2.414-3.411 4.081-6 5 1.411-2.414 3.411-4.081 6-5z"/><path style="opacity:.592" fill="#8a898e" d="M149.5 301.5c-3.942.375-7.609 1.375-11 3-2.239-1.501-2.239-2.834 0-4a34.301 34.301 0 0 0 11 1z"/><path style="opacity:.706" fill="#9796a0" d="M158.5 298.5c1.424 2.015 2.09 4.348 2 7-1.424-2.015-2.09-4.348-2-7z"/><path style="opacity:.859" fill="#5e5d67" d="M255.5 299.5c3.199.932 6.365.932 9.5 0l1.5.5c-2.432 1.087-2.098 1.587 1 1.5l3 2c-5.309-.576-10.309-1.909-15-4z"/><path style="opacity:.384" fill="#96959e" d="M306.5 301.5c2.652-.09 4.985.576 7 2-2.652.09-4.985-.576-7-2z"/><path style="opacity:1" fill="#2a2938" d="M280.5 294.5h1a4.934 4.934 0 0 0 .5 3c2.022-1.491 3.688-1.158 5 1 2.394-.636 4.894-.636 7.5 0 2.928.065 5.595.732 8 2-6.826-.357-7.826 1.809-3 6.5-1.566.608-2.9 1.442-4 2.5h-3c-1.599.268-2.932-.066-4-1-2.015-1.424-4.348-2.09-7-2-1.599.268-2.932-.066-4-1-2.015-1.424-4.348-2.09-7-2l-3-2c.763-.768 1.763-1.268 3-1.5a16.661 16.661 0 0 1-4-4c4.352-.656 9.019-1.156 14-1.5z"/><path style="opacity:1" fill="#34333f" d="M91.5 266.5c3.013.081 5.013 1.414 6 4 .028 3.416 1.028 6.416 3 9-.155 3.216.845 5.883 3 8v1c-.334 2.991.666 5.324 3 7 .002 3.665 1.335 6.665 4 9 1.508 1.681 2.508 3.681 3 6-.073 1.527.594 2.527 2 3 1.525 1.716 2.525 3.716 3 6-4.761-2.263-7.928-5.93-9.5-11-2.45 2.878-3.116 6.212-2 10a17.842 17.842 0 0 1 5.5 4.5c-3.149.776-3.649 2.276-1.5 4.5.423-1.456 1.256-1.956 2.5-1.5a19.871 19.871 0 0 1-1 5.5c-7.205-9.739-12.872-20.406-17-32 1.517-.011 2.684-.677 3.5-2 3.522 2.687 5.022 6.021 4.5 10 1.491-.848 2.158-2.181 2-4-.736-4.805-2.57-9.138-5.5-13l-1-7a174.92 174.92 0 0 0-3.5-3 31.12 31.12 0 0 1-1-11h-3v-3z"/><path style="opacity:1" fill="#272635" d="M155.5 296.5a5.727 5.727 0 0 1 3 1v1c-.09 2.652.576 4.985 2 7 1.233 2.296 3.233 3.63 6 4-.17 1.322.163 2.489 1 3.5-1.244.456-2.077-.044-2.5-1.5-1.264 1.66-1.764 3.327-1.5 5 0 .667-.333 1-1 1-1.676.683-2.343 2.017-2 4-1.1 1.777-1.934 3.777-2.5 6-.816-1.323-1.983-1.989-3.5-2-.762-1.762-2.096-2.762-4-3a812.705 812.705 0 0 0-11-2 9.108 9.108 0 0 0 1-5l1-4a24.935 24.935 0 0 0-.5-7c-.77 1.098-1.603 1.098-2.5 0 3.391-1.625 7.058-2.625 11-3 2.589-.919 4.589-2.586 6-5z"/><path style="opacity:.667" fill="#797780" d="M270.5 303.5c2.652-.09 4.985.576 7 2-2.652.09-4.985-.576-7-2z"/><path style="opacity:1" fill="#63626c" d="M138.5 304.5c.897 1.098 1.73 1.098 2.5 0 .497 2.31.663 4.643.5 7-1.236-2.149-2.236-4.482-3-7z"/><path style="opacity:1" fill="#2b2a39" d="M175.5 289.5c3.763.357 7.43 1.19 11 2.5 2.251.748 3.584 2.248 4 4.5 1.257 2.927 3.257 5.261 6 7a25.658 25.658 0 0 1 6 6 2.428 2.428 0 0 1-.5 2c-.654-1.196-1.154-1.196-1.5 0a11.38 11.38 0 0 0 2.5 2c.718-.951 1.551-1.117 2.5-.5-1.333 1-1.333 2 0 3a6.978 6.978 0 0 1 3.5 2.5c1.414-.913 2.914-.913 4.5 0-.172.992.162 1.658 1 2-.17 1.322.163 2.489 1 3.5-2.667.667-2.667 1.333 0 2-3.989.908-7.655.241-11-2 .684-1.827.017-3.327-2-4.5.204 1.029-.296 2.029-1.5 3-.671-.752-1.504-1.086-2.5-1-3-2.333-5.667-5-8-8a18.453 18.453 0 0 0-.5-6l-1 1a29.517 29.517 0 0 0-2.5-4.5c2.075-1.581 2.075-3.415 0-5.5-.886.825-1.219 1.825-1 3a23.776 23.776 0 0 1-6-2.5c.116-1.268.449-2.602 1-4-1.449-1.117-3.116-1.784-5-2l2-1a12.93 12.93 0 0 0-5-.5v-1c.709-.904 1.709-1.237 3-1z"/><path style="opacity:1" fill="#6d6c76" d="M314.5 303.5c3.897.555 7.563 1.555 11 3-3.286-.429-6.453-.429-9.5 0l-1.5-3z"/><path style="opacity:.999" fill="#282736" d="M552.5 293.5a19.22 19.22 0 0 0-1 6c-1.413 2.719-2.08 5.719-2 9a469.324 469.324 0 0 0-10 33c-.914-3.228-1.247-6.561-1-10h-4c-.193 3.949-.693 3.949-1.5 0-.2 1.82-1.034 3.153-2.5 4v-2c-.134-1.792.199-3.458 1-5 1.424-2.015 2.09-4.348 2-7 1.268-2.405 1.935-5.072 2-8a265.982 265.982 0 0 0 7-22c2.332-.662 2.999-1.995 2-4 .228-5.38 1.728-6.047 4.5-2a10.258 10.258 0 0 1 1.5-4l1 1.5a123.948 123.948 0 0 0-2 7.5c.368 1.675 1.368 2.675 3 3z"/><path style="opacity:.949" fill="#84858a" d="M160.5 305.5c2.382.851 4.382 2.184 6 4-2.767-.37-4.767-1.704-6-4z"/><path style="opacity:.039" fill="#cccdd0" d="M551.5 299.5c.432 3.377-.235 6.377-2 9-.08-3.281.587-6.281 2-9z"/><path style="opacity:.667" fill="#7c7b82" d="M281.5 306.5c2.652-.09 4.985.576 7 2-2.652.09-4.985-.576-7-2z"/><path style="opacity:1" fill="#282736" d="M302.5 300.5c1.599-.268 2.932.066 4 1 2.015 1.424 4.348 2.09 7 2h1l1.5 3c3.047-.429 6.214-.429 9.5 0 2.646 1.753 5.646 2.753 9 3-1.792.809-3.792 1.309-6 1.5l4 1-2 1c3.533-.132 5.533 1.535 6 5l-2 .5a78.111 78.111 0 0 0-15-4.5l1-1c-5.718-.977-11.384-1.144-17-.5-1.599.268-2.932-.066-4-1-1.171-.845-2.505-1.511-4-2 1.1-1.058 2.434-1.892 4-2.5-4.826-4.691-3.826-6.857 3-6.5z"/><path style="opacity:.71" fill="#7c7a81" d="M325.5 306.5c3.897.555 7.563 1.555 11 3h-2c-3.354-.247-6.354-1.247-9-3z"/><path style="opacity:.604" fill="#878590" d="M292.5 309.5h3c1.495.489 2.829 1.155 4 2-2.652.09-4.985-.576-7-2z"/><path style="opacity:.855" fill="#7c7b84" d="M341.5 310.5a107.09 107.09 0 0 1 14 4h-5c-3.313-.843-6.313-2.177-9-4z"/><path style="opacity:.267" fill="#b0b0b6" d="M113.5 310.5c1.406.473 2.073 1.473 2 3-1.406-.473-2.073-1.473-2-3z"/><path style="opacity:1" fill="#5e5d65" d="M166.5 309.5c.992-.172 1.658.162 2 1 1.333 1 1.333 2 0 3-1.159 1.75-2.826 2.75-5 3-.264-1.673.236-3.34 1.5-5 .423 1.456 1.256 1.956 2.5 1.5-.837-1.011-1.17-2.178-1-3.5z"/><path style="opacity:.024" fill="#bbbbbd" d="M168.5 310.5c2.667 1 2.667 2 0 3 1.333-1 1.333-2 0-3z"/><path style="opacity:1" fill="#43424d" d="M202.5 309.5a71.94 71.94 0 0 1 11 9c-1.586-.913-3.086-.913-4.5 0a6.978 6.978 0 0 0-3.5-2.5c-1.333-1-1.333-2 0-3-.949-.617-1.782-.451-2.5.5a11.38 11.38 0 0 1-2.5-2c.346-1.196.846-1.196 1.5 0a2.428 2.428 0 0 0 .5-2z"/><path style="opacity:.639" fill="#85828b" d="M307.5 313.5c2.652-.09 4.985.576 7 2-2.652.09-4.985-.576-7-2z"/><path style="opacity:.999" fill="#2b2a38" d="M334.5 309.5h2a20.69 20.69 0 0 1 5 1c2.687 1.823 5.687 3.157 9 4a24.551 24.551 0 0 1-5 5c1.151 1.231 2.317 1.231 3.5 0a69.52 69.52 0 0 1 6.5 6 51.569 51.569 0 0 0-7-1c-1.599.268-2.932-.066-4-1-2.015-1.424-4.348-2.09-7-2-2.928-.065-5.595-.732-8-2-2.015-1.424-4.348-2.09-7-2-2.338-1.54-5.005-2.206-8-2-2.015-1.424-4.348-2.09-7-2-1.599.268-2.932-.066-4-1 5.616-.644 11.282-.477 17 .5l-1 1a78.111 78.111 0 0 1 15 4.5l2-.5c-.467-3.465-2.467-5.132-6-5l2-1-4-1c2.208-.191 4.208-.691 6-1.5z"/><path style="opacity:.875" fill="#727177" d="M314.5 315.5c2.995-.206 5.662.46 8 2-2.928-.065-5.595-.732-8-2z"/><path style="opacity:.49" fill="#bababf" d="M535.5 313.5c-.065 2.928-.732 5.595-2 8-.206-2.995.46-5.662 2-8z"/><path style="opacity:.773" fill="#7f7f88" d="M322.5 317.5c2.652-.09 4.985.576 7 2-2.652.09-4.985-.576-7-2z"/><path style="opacity:.788" fill="#909096" d="M140.5 315.5a9.108 9.108 0 0 1-1 5c3.813.667 7.479 1.334 11 2-4.059.066-8.059.233-12 .5l-1-1a68.771 68.771 0 0 1 3-6.5z"/><path style="opacity:.929" fill="#83838c" d="M213.5 318.5c1.73.526 3.064 1.526 4 3a5.727 5.727 0 0 1-3-1c-.838-.342-1.172-1.008-1-2z"/><path style="opacity:.067" fill="#bfbfc2" d="M162.5 317.5c-.489 1.495-1.155 2.829-2 4-.343-1.983.324-3.317 2-4z"/><path style="opacity:1" fill="#2f2e3c" d="M350.5 314.5h5a440.308 440.308 0 0 1 40 11c-5.715.637-11.381-.03-17-2-1.196.346-1.196.846 0 1.5a6.802 6.802 0 0 0-3 1.5c2.753 3.644 6.253 4.644 10.5 3 1.36 2.523 3.193 4.523 5.5 6h-2c-1.599.268-2.932-.066-4-1-2.015-1.424-4.348-2.09-7-2-1.599.268-2.932-.066-4-1-2.015-1.424-4.348-2.09-7-2-4.261-.398-8.261-1.398-12-3v-1a69.52 69.52 0 0 0-6.5-6c-1.183 1.231-2.349 1.231-3.5 0a24.551 24.551 0 0 0 5-5z"/><path style="opacity:.467" fill="#96969c" d="M118.5 319.5c1.406.473 2.073 1.473 2 3l-2-1v-2z"/><path style="opacity:.792" fill="#87878e" d="M150.5 322.5c1.904.238 3.238 1.238 4 3-1.904-.238-3.238-1.238-4-3z"/><path style="opacity:.961" fill="#85848b" d="M217.5 321.5c2.382.851 4.382 2.184 6 4-2.767-.37-4.767-1.704-6-4z"/><path style="opacity:.624" fill="#7c7c84" d="M337.5 321.5c2.652-.09 4.985.576 7 2-2.652.09-4.985-.576-7-2z"/><path style="opacity:1" fill="#262535" d="M118.5 319.5v2c2.978 4.685 4.978 9.518 6 14.5-.84 1.171-1.673 2.338-2.5 3.5-2.766-3.277-5.933-5.944-9.5-8a19.871 19.871 0 0 0 1-5.5c-1.244-.456-2.077.044-2.5 1.5-2.149-2.224-1.649-3.724 1.5-4.5a17.842 17.842 0 0 0-5.5-4.5c-1.116-3.788-.45-7.122 2-10 1.572 5.07 4.739 8.737 9.5 11z"/><path style="opacity:.384" fill="#a9a9af" d="M120.5 322.5c1.406.473 2.073 1.473 2 3-1.406-.473-2.073-1.473-2-3z"/><path style="opacity:.898" fill="#838289" d="M160.5 321.5c.396 2.982-.271 5.649-2 8-1.688-1.021-3.021-2.355-4-4 1.517.011 2.684.677 3.5 2 .566-2.223 1.4-4.223 2.5-6z"/><path style="opacity:.62" fill="#888690" d="M348.5 324.5c2.361.174 4.694.507 7 1v1c-2.652.09-4.985-.576-7-2z"/><path style="opacity:1" fill="#343340" d="M214.5 320.5c.891.61 1.891.943 3 1 1.233 2.296 3.233 3.63 6 4a121.33 121.33 0 0 1 13 7v1c-1.597.59-2.931 1.59-4 3a21.83 21.83 0 0 0-6-5l-1 2c-2.653-2.163-5.653-2.997-9-2.5 3.229.356 4.729 2.19 4.5 5.5l4-2c.311 1.242-.189 2.242-1.5 3 .363.683.696 1.35 1 2a117.126 117.126 0 0 1-26-18c.996-.086 1.829.248 2.5 1 1.204-.971 1.704-1.971 1.5-3 2.017 1.173 2.684 2.673 2 4.5 3.345 2.241 7.011 2.908 11 2-2.667-.667-2.667-1.333 0-2-.837-1.011-1.17-2.178-1-3.5z"/><path style="opacity:.69" fill="#797880" d="M396.5 325.5c2.567.221 4.901.888 7 2-2.728.329-5.062-.337-7-2z"/><path style="opacity:.518" fill="#b2b1b7" d="M533.5 321.5c.09 2.652-.576 4.985-2 7-.09-2.652.576-4.985 2-7z"/><path style="opacity:1" fill="#2c2b3a" d="M395.5 325.5h1c1.938 1.663 4.272 2.329 7 2 1.644.816 2.81 2.15 3.5 4 3.76-.857 7.594-.857 11.5 0 5.222.887 10.222 2.221 15 4v1a7955.386 7955.386 0 0 1-5 4c1.903 2.062 4.237 3.396 7 4a6.802 6.802 0 0 1-3 1.5c.916.278 1.582.778 2 1.5a193.45 193.45 0 0 1-23-6c-2.015-1.424-4.348-2.09-7-2-2.928-.065-5.595-.732-8-2-1.43-1.037-3.097-1.704-5-2-2.307-1.477-4.14-3.477-5.5-6-4.247 1.644-7.747.644-10.5-3a6.802 6.802 0 0 1 3-1.5c-1.196-.654-1.196-1.154 0-1.5 5.619 1.97 11.285 2.637 17 2z"/><path style="opacity:.62" fill="#8b8b94" d="M123.5 327.5c1.762.762 2.762 2.096 3 4-1.762-.762-2.762-2.096-3-4z"/><path style="opacity:.82" fill="#76767d" d="M367.5 329.5c2.652-.09 4.985.576 7 2-2.652.09-4.985-.576-7-2z"/><path style="opacity:.992" fill="#65646e" d="M403.5 327.5c5.222.887 10.222 2.221 15 4-3.906-.857-7.74-.857-11.5 0-.69-1.85-1.856-3.184-3.5-4z"/><path style="opacity:.106" fill="#c2c2c8" d="M549.5 308.5c-2.585 12.683-5.918 25.016-10 37v-4a469.324 469.324 0 0 1 10-33z"/><path style="opacity:.49" fill="#9b969f" d="M126.5 331.5c1.406.473 2.073 1.473 2 3-1.406-.473-2.073-1.473-2-3z"/><path style="opacity:.624" fill="#7e7e83" d="M378.5 332.5c2.652-.09 4.985.576 7 2-2.652.09-4.985-.576-7-2z"/><path style="opacity:.282" fill="#b6b3bc" d="M344.5 334.5c2.652-.09 4.985.576 7 2-2.652.09-4.985-.576-7-2z"/><path style="opacity:.792" fill="#86888e" d="M128.5 334.5c1.762.762 2.762 2.096 3 4-1.762-.762-2.762-2.096-3-4z"/><path style="opacity:1" fill="#54525c" d="M236.5 333.5v-1a152.212 152.212 0 0 1 15 6c-1.599-.268-2.932.066-4 1-1.869-2.076-4.036-2.409-6.5-1a32.864 32.864 0 0 0-4.5-5z"/><path style="opacity:.961" fill="#75747f" d="M343.5 334.5a18.974 18.974 0 0 1-8 2c2.454-2.163 5.12-2.83 8-2z"/><path style="opacity:.729" fill="#8b8a90" d="M389.5 335.5h2c1.903.296 3.57.963 5 2-2.652.09-4.985-.576-7-2z"/><path style="opacity:.604" fill="#929098" d="M433.5 336.5v-1c2.652-.09 4.985.576 7 2h-1l-6-1z"/><path style="opacity:.69" fill="#95949b" d="M530.5 333.5v2c-.296 1.903-.963 3.57-2 5-.09-2.652.576-4.985 2-7z"/><path style="opacity:1" fill="#252535" d="M236.5 333.5a32.864 32.864 0 0 1 4.5 5c2.464-1.409 4.631-1.076 6.5 1a91.767 91.767 0 0 1 10 4 3.647 3.647 0 0 0 1.5-1 6.978 6.978 0 0 0 2.5 3.5 11.38 11.38 0 0 1-2 2.5c-2.706-2.354-5.706-3.021-9-2a32.444 32.444 0 0 0-6-1.5c1.388-.889 1.222-1.389-.5-1.5-2.171 1.095-3.838.428-5-2-3.417.686-6.584-.147-9.5-2.5-1.765-.64-3.432-.473-5 .5a43.836 43.836 0 0 0-1-2c1.311-.758 1.811-1.758 1.5-3l-4 2c.229-3.31-1.271-5.144-4.5-5.5 3.347-.497 6.347.337 9 2.5l1-2a21.83 21.83 0 0 1 6 5c1.069-1.41 2.403-2.41 4-3z"/><path style="opacity:1" fill="#2a2936" d="M343.5 334.5h1c2.015 1.424 4.348 2.09 7 2h1c.734 1.208 1.067 2.541 1 4-3.797.395-6.797 2.062-9 5-2.053-.098-3.72.569-5 2-.709.904-1.709 1.237-3 1h-11c.763-.768 1.763-1.268 3-1.5l-4-1a77.73 77.73 0 0 1 13 0c1.905-.826 2.239-1.993 1-3.5l-2 1c-2.794-2.6-5.627-2.6-8.5 0l-2-2c-2.211 3.52-5.045 4.353-8.5 2.5 5.294-.818 5.294-1.318 0-1.5v-1c1.542-.801 3.208-1.134 5-1 4.789-.154 9.122-1.487 13-4a18.974 18.974 0 0 0 8-2z"/><path style="opacity:.776" fill="#7e7d84" d="M335.5 336.5c-3.878 2.513-8.211 3.846-13 4 4.117-1.704 8.451-3.037 13-4z"/><path style="opacity:1" fill="#282836" d="m118.5 321.5 2 1c-.073 1.527.594 2.527 2 3 .838.342 1.172 1.008 1 2 .238 1.904 1.238 3.238 3 4-.073 1.527.594 2.527 2 3 .238 1.904 1.238 3.238 3 4 .58 2.249 1.913 3.915 4 5 1.257 2.927 3.257 5.261 6 7 2.667 4.667 6.333 8.333 11 11l7 6v2c-2.033.013-4.2-.654-6.5-2-1.059.13-1.892.63-2.5 1.5 2.569 2.188 3.903 5.021 4 8.5a5.727 5.727 0 0 0-3-1c-1.667-1-3-2.333-4-4-1.093-2.761-3.093-4.427-6-5 .311-4.365-2.023-6.698-7-7l-2-3c-.671-1.347-.671-2.514 0-3.5-.971-1.204-1.971-1.704-3-1.5a18.08 18.08 0 0 1 2-3.5 4.934 4.934 0 0 0-3-.5c.219-1.175-.114-2.175-1-3-2.967-.817-5.634-2.15-8-4a40.606 40.606 0 0 1-7-10c3.567 2.056 6.734 4.723 9.5 8 .827-1.162 1.66-2.329 2.5-3.5-1.022-4.982-3.022-9.815-6-14.5z"/><path style="opacity:.62" fill="#828289" d="M404.5 339.5c2.652-.09 4.985.576 7 2-2.652.09-4.985-.576-7-2z"/><path style="opacity:.58" fill="#9d9da3" d="M131.5 338.5c2.087 1.085 3.42 2.751 4 5-2.087-1.085-3.42-2.751-4-5z"/><path style="opacity:1" fill="#252535" d="m433.5 336.5 6 1c1.499.46 2.499 1.793 3 4 2.429.085 4.429 1.085 6 3 1.196-.346 1.196-.846 0-1.5a28.043 28.043 0 0 0 5-1.5c1.104 1.131.771 1.965-1 2.5a12.93 12.93 0 0 0 5 .5c.478 2.778-.522 4.778-3 6a23.832 23.832 0 0 0-9-1 63.322 63.322 0 0 0-11-2c-.418-.722-1.084-1.222-2-1.5a6.802 6.802 0 0 0 3-1.5c-2.763-.604-5.097-1.938-7-4 1.671-1.336 3.338-2.669 5-4z"/><path style="opacity:.22" fill="#aeadb3" d="M264.5 341.5a849.906 849.906 0 0 0 22 3h-13a31.613 31.613 0 0 1-9-3z"/><path style="opacity:.902" fill="#8f8e95" d="M317.5 341.5v1a117.84 117.84 0 0 1-14 2h-8c7.195-.994 14.529-1.994 22-3z"/><path style="opacity:1" fill="#6a6971" d="M352.5 336.5c2.196.065 4.196.732 6 2a34.69 34.69 0 0 1-14 7c2.203-2.938 5.203-4.605 9-5 .067-1.459-.266-2.792-1-4z"/><path style="opacity:.427" fill="#9d9ca1" d="M463.5 343.5c2.652-.09 4.985.576 7 2-2.652.09-4.985-.576-7-2z"/><path style="opacity:1" fill="#41404b" d="M119.5 341.5c2.366 1.85 5.033 3.183 8 4 .886.825 1.219 1.825 1 3a4.934 4.934 0 0 1 3 .5 18.08 18.08 0 0 0-2 3.5c1.029-.204 2.029.296 3 1.5-.671.986-.671 2.153 0 3.5a38.47 38.47 0 0 1-5.5-5 50.433 50.433 0 0 1-7.5-11z"/><path style="opacity:.828" fill="#696771" d="M295.5 344.5h8a61.015 61.015 0 0 1-22 0h5c3.035-1.234 6.035-1.234 9 0z"/><path style="opacity:.949" fill="#61606b" d="M230.5 342.5c5.441.392 10.107 2.392 14 6-4.967-1.488-9.634-3.488-14-6z"/><path style="opacity:1" fill="#31303e" d="M247.5 339.5c1.068-.934 2.401-1.268 4-1 4.373.843 8.707 1.843 13 3a31.613 31.613 0 0 0 9 3c-1.347.671-2.514.671-3.5 0-.333 1.547.167 2.88 1.5 4a38.085 38.085 0 0 1 7 2.5c-2.2-.584-4.367-.418-6.5.5-1.52-2.335-3.02-2.168-4.5.5a68.772 68.772 0 0 1 10 3.5c-6.291.005-12.291-.995-18-3-4.403-1.908-9.07-3.241-14-4h-1c-3.893-3.608-8.559-5.608-14-6-2.319-.492-4.319-1.492-6-3 1.568-.973 3.235-1.14 5-.5 2.916 2.353 6.083 3.186 9.5 2.5 1.162 2.428 2.829 3.095 5 2 1.722.111 1.888.611.5 1.5 2.056.311 4.056.811 6 1.5 3.294-1.021 6.294-.354 9 2a11.38 11.38 0 0 0 2-2.5 6.978 6.978 0 0 1-2.5-3.5 3.647 3.647 0 0 1-1.5 1 91.767 91.767 0 0 0-10-4z"/><path style="opacity:1" fill="#272534" d="M325.5 348.5a46.725 46.725 0 0 1-8 5 274.776 274.776 0 0 1-40 2 68.772 68.772 0 0 0-10-3.5c1.48-2.668 2.98-2.835 4.5-.5 2.133-.918 4.3-1.084 6.5-.5a38.085 38.085 0 0 0-7-2.5c-1.333-1.12-1.833-2.453-1.5-4 .986.671 2.153.671 3.5 0h8a61.015 61.015 0 0 0 22 0 117.84 117.84 0 0 0 14-2c5.294.182 5.294.682 0 1.5 3.455 1.853 6.289 1.02 8.5-2.5l2 2c2.873-2.6 5.706-2.6 8.5 0l2-1c1.239 1.507.905 2.674-1 3.5a77.73 77.73 0 0 0-13 0l4 1c-1.237.232-2.237.732-3 1.5z"/><path style="opacity:1" fill="#66656f" d="M528.5 340.5c.742 6.046-1.591 10.38-7 13h-1c3.966-3.61 6.632-7.944 8-13z"/><path style="opacity:.196" fill="#b5b4bc" d="M344.5 345.5c-1.28 1.431-2.947 2.098-5 2 1.28-1.431 2.947-2.098 5-2z"/><path style="opacity:.667" fill="#86868d" d="M471.5 345.5c3.616.399 6.95 1.399 10 3-3.714-.09-7.048-1.09-10-3z"/><path style="opacity:.541" fill="#a2a0a7" d="M135.5 343.5c2.743 1.739 4.743 4.073 6 7-2.743-1.739-4.743-4.073-6-7z"/><path style="opacity:.871" fill="#7f7d84" d="M245.5 348.5c4.93.759 9.597 2.092 14 4-5.04-.35-9.706-1.684-14-4z"/><path style="opacity:1" fill="#5a5961" d="M434.5 347.5a63.322 63.322 0 0 1 11 2v1c-3.979-.242-7.646-1.242-11-3z"/><path style="opacity:.078" fill="#dfdfe1" d="M539.5 345.5c.389 3.053-.277 5.72-2 8 .065-2.928.732-5.595 2-8z"/><path style="opacity:1" fill="#4d4c56" d="M325.5 348.5h11c-5.972 2.651-12.305 4.317-19 5a46.725 46.725 0 0 0 8-5z"/><path style="opacity:.49" fill="#adadae" d="M377.5 349.5c.06-.543.393-.876 1-1 .886.825 1.219 1.825 1 3l-2-2z"/><path style="opacity:.761" fill="#86848c" d="M445.5 350.5c3.714.09 7.048 1.09 10 3-3.616-.399-6.95-1.399-10-3z"/><path style="opacity:.055" fill="#a6a6ac" d="M489.5 350.5c3.979.242 7.646 1.242 11 3h-4a60.379 60.379 0 0 1-7-3z"/><path style="opacity:.918" fill="#87868e" d="M141.5 350.5c4 3.333 7.667 7 11 11-4.667-2.667-8.333-6.333-11-11z"/><path style="opacity:.631" fill="#939297" d="M215.5 351.5a5.727 5.727 0 0 0-3 1c.194-3.505 1.194-3.838 3-1z"/><path style="opacity:1" fill="#302f3c" d="M439.5 337.5h1c7.973 1.242 15.64 3.242 23 6 2.015 1.424 4.348 2.09 7 2h1c2.952 1.91 6.286 2.91 10 3 1.599-.268 2.932.066 4 1-2.041.354-3.874.354-5.5 0a11.333 11.333 0 0 1-1.5 3.5 20.093 20.093 0 0 0 6 1.5v3c6.23 1.396 12.563 3.563 19 6.5-.556.383-.889.883-1 1.5-1.542-.801-3.208-1.134-5-1-2.928-.065-5.595-.732-8-2-1.938-1.663-4.272-2.329-7-2a132.125 132.125 0 0 1-19-5c-2.015-1.424-4.348-2.09-7-2h-1c-2.952-1.91-6.286-2.91-10-3v-1c3.079-.24 6.079.093 9 1 2.478-1.222 3.478-3.222 3-6a12.93 12.93 0 0 1-5-.5c1.771-.535 2.104-1.369 1-2.5a28.043 28.043 0 0 1-5 1.5c1.196.654 1.196 1.154 0 1.5-1.571-1.915-3.571-2.915-6-3-.501-2.207-1.501-3.54-3-4z"/><path style="opacity:1" fill="#262534" d="M539.5 341.5c-.996.086-1.829-.248-2.5-1-.829 4.201-2.329 8.034-4.5 11.5.928.388 1.595 1.055 2 2l-5.5 5.5-1-2c-1.261 3.32-2.928 3.654-5 1-1.388 1.054-2.888 1.22-4.5.5 3.242-.283 3.576-1.117 1-2.5 1.112-.765 1.779-1.765 2-3 5.409-2.62 7.742-6.954 7-13 1.037-1.43 1.704-3.097 2-5 1.466-.847 2.3-2.18 2.5-4 .807 3.949 1.307 3.949 1.5 0h4c-.247 3.439.086 6.772 1 10z"/><path style="opacity:1" fill="#2d2c3b" d="M485.5 349.5c1.599-.268 2.932.066 4 1a60.379 60.379 0 0 0 7 3 52.308 52.308 0 0 0 7.5 7c2.918-.582 6.085-.749 9.5-.5a4.457 4.457 0 0 0-2 1.5l4 2a6.802 6.802 0 0 1-3 1.5c2.198.373 4.365.873 6.5 1.5 1.077-.929 2.244-1.596 3.5-2 1.333 1 1.333 2 0 3-4.651 2.539-9.318 2.539-14 0-1.49-1.78-3.49-2.446-6-2 .111-.617.444-1.117 1-1.5-6.437-2.937-12.77-5.104-19-6.5v-3a20.093 20.093 0 0 1-6-1.5 11.333 11.333 0 0 0 1.5-3.5c1.626.354 3.459.354 5.5 0z"/><path style="opacity:.686" fill="#9c9ba4" d="M379.5 351.5c1.238 1.714 1.905 3.714 2 6-1.574-1.602-2.241-3.602-2-6z"/><path style="opacity:.588" fill="#8f8e95" d="M456.5 353.5c2.652-.09 4.985.576 7 2-2.652.09-4.985-.576-7-2z"/><path style="opacity:.427" fill="#a4a4aa" d="M317.5 353.5c-4.091 1.395-8.424 2.228-13 2.5-9.176.824-18.176.657-27-.5a274.776 274.776 0 0 0 40-2z"/><path style="opacity:.769" fill="#908f96" d="M232.5 360.5v-3c-3.871.315-7.538-.018-11-1 4.059-.066 8.059-.233 12-.5 1.053 1.749.72 3.249-1 4.5z"/><path style="opacity:.282" fill="#b8b8bd" d="M370.5 356.5c-3.942.375-7.609 1.375-11 3-.904-.709-1.237-1.709-1-3h12z"/><path style="opacity:1" fill="#2c2a39" d="m377.5 349.5 2 2c-.241 2.398.426 4.398 2 6v1c.8 2.241 2.466 3.241 5 3 .482.916.815 1.916 1 3-1.047 1.556-1.714 3.223-2 5-1.324-1.35-2.324-1.183-3 .5a283.874 283.874 0 0 0-2 9.5c-.247 1.213-.914 1.88-2 2-.473-1.406-1.473-2.073-3-2-.473-1.406-1.473-2.073-3-2h-11a51.569 51.569 0 0 0 1-7 24.158 24.158 0 0 0-3-11c3.391-1.625 7.058-2.625 11-3 2-2.667 4.333-5 7-7z"/><path style="opacity:1" fill="#2d2c3a" d="M539.5 341.5v4c-1.268 2.405-1.935 5.072-2 8-1.699 2.066-3.032 4.4-4 7a6.547 6.547 0 0 0-3 3c-.342.838-1.008 1.172-2 1-2.112-.775-4.112-.775-6 0-1.256.404-2.423 1.071-3.5 2a56.738 56.738 0 0 0-6.5-1.5 6.802 6.802 0 0 0 3-1.5l-4-2a4.457 4.457 0 0 1 2-1.5c-3.415-.249-6.582-.082-9.5.5a52.308 52.308 0 0 1-7.5-7h4c1.792-.134 3.458.199 5 1 .111.617.444 1.117 1 1.5 2.867.801 5.534.634 8-.5 1.802-.958 3.802-1.625 6-2h1c-.221 1.235-.888 2.235-2 3 2.576 1.383 2.242 2.217-1 2.5 1.612.72 3.112.554 4.5-.5 2.072 2.654 3.739 2.32 5-1l1 2 5.5-5.5c-.405-.945-1.072-1.612-2-2 2.171-3.466 3.671-7.299 4.5-11.5.671.752 1.504 1.086 2.5 1z"/><path style="opacity:.537" fill="#717278" d="M505.5 354.5a41.73 41.73 0 0 0 9 1c-2.466 1.134-5.133 1.301-8 .5-.556-.383-.889-.883-1-1.5z"/><path style="opacity:1" fill="#2a2837" d="M215.5 351.5c2.609.943 4.609 2.61 6 5 3.462.982 7.129 1.315 11 1v3c.172.992-.162 1.658-1 2-1.961 1.82-2.294 3.82-1 6-.113 2.549.554 4.882 2 7a21.127 21.127 0 0 1-9 1c-.417-.624-1.084-.957-2-1a32.647 32.647 0 0 1-4.5 2c-1.904-1.13-3.737-1.13-5.5 0v-1c.322-2.222-.345-4.056-2-5.5 1.473-.71 2.14-1.876 2-3.5-7.18 3.151-8.513 1.484-4-5 .342-.838 1.008-1.172 2-1 1.756-1.052 2.423-2.719 2-5-.268-1.599.066-2.932 1-4a5.727 5.727 0 0 1 3-1z"/><path style="opacity:.733" fill="#98979d" d="M440.5 360.5a104.618 104.618 0 0 0-9-1c.283-.789.783-1.456 1.5-2a40.93 40.93 0 0 1 7.5 3z"/><path style="opacity:.055" fill="#c9cacb" d="M537.5 353.5c-.225 3.046-1.558 5.379-4 7 .968-2.6 2.301-4.934 4-7z"/><path style="opacity:.616" fill="#8a8a91" d="M211.5 356.5c.423 2.281-.244 3.948-2 5a26.335 26.335 0 0 1 2-5z"/><path style="opacity:.737" fill="#9897a0" d="M381.5 358.5c1.868.763 3.535 1.763 5 3-2.534.241-4.2-.759-5-3z"/><path style="opacity:.863" fill="#787881" d="M482.5 360.5c2.728-.329 5.062.337 7 2-2.567-.221-4.901-.888-7-2z"/><path style="opacity:1" fill="#595964" d="M134.5 360.5c4.977.302 7.311 2.635 7 7-2.667-2-5-4.333-7-7z"/><path style="opacity:.027" fill="#e9e9eb" d="M533.5 360.5c0 2-1 3-3 3a6.547 6.547 0 0 1 3-3z"/><path style="opacity:.992" fill="#55545f" d="M528.5 364.5c-1.411 2.039-3.411 3.039-6 3 1.333-1 1.333-2 0-3 1.888-.775 3.888-.775 6 0z"/><path style="opacity:.392" fill="#9a9aa2" d="m231.5 362.5-1 6c-1.294-2.18-.961-4.18 1-6z"/><path style="opacity:1" fill="#484751" d="M440.5 360.5c1.929-.269 3.595.231 5 1.5a84.01 84.01 0 0 1-8 7.5c.17-1.322-.163-2.489-1-3.5l3-1-1-1a18.473 18.473 0 0 0 2-3.5z"/><path style="opacity:1" fill="#676570" d="M497.5 364.5c1.792-.134 3.458.199 5 1 2.51-.446 4.51.22 6 2-3.979-.242-7.646-1.242-11-3z"/><path style="opacity:.992" fill="#595861" d="M386.5 361.5c2.437.386 4.437 1.553 6 3.5a46.153 46.153 0 0 1-7 4.5c.286-1.777.953-3.444 2-5a10.014 10.014 0 0 0-1-3z"/><path style="opacity:1" fill="#4f4e59" d="M207.5 362.5c-4.513 6.484-3.18 8.151 4 5 .14 1.624-.527 2.79-2 3.5 1.655 1.444 2.322 3.278 2 5.5-.719-1.591-1.719-3.091-3-4.5-3.103-1.281-5.769-3.114-8-5.5a37 37 0 0 1 7-4z"/><path style="opacity:.627" fill="#9b9ba4" d="M159.5 367.5a6.547 6.547 0 0 1 3 3 5.727 5.727 0 0 1-3-1v-2z"/><path style="opacity:.933" fill="#7b7a81" d="M431.5 359.5c-3.063 4.066-6.729 7.399-11 10 3.063-4.066 6.729-7.399 11-10z"/><path style="opacity:.71" fill="#74747e" d="M141.5 367.5c2.907.573 4.907 2.239 6 5-2.589-.919-4.589-2.586-6-5z"/><path style="opacity:1" fill="#292838" d="M159.5 369.5c.891.61 1.891.943 3 1a58.524 58.524 0 0 1 10 8c.697 1.571 1.03 3.071 1 4.5a32.367 32.367 0 0 1-3 4.5c-1.786-1.521-3.619-1.854-5.5-1a20.174 20.174 0 0 0-4-6c-1.414.913-2.914.913-4.5 0l-2-3c-.097-3.479-1.431-6.312-4-8.5.608-.87 1.441-1.37 2.5-1.5 2.3 1.346 4.467 2.013 6.5 2z"/><path style="opacity:.122" fill="#cecdd2" d="M287.5 370.5c-1.679-.215-2.679.452-3 2-.904-.709-1.237-1.709-1-3 1.599-.268 2.932.066 4 1z"/><path style="opacity:.843" fill="#7f7d86" d="M420.5 369.5c-1.085 2.087-2.751 3.42-5 4 1.085-2.087 2.751-3.42 5-4z"/><path style="opacity:1" fill="#2c2b39" d="M303.5 368.5c1.625 3.391 2.625 7.058 3 11l2 1c.703 2.216 2.036 4.049 4 5.5-.556.383-.889.883-1 1.5-3.026 1.077-6.026 1.077-9 0-.792 1.2-.792 2.533 0 4a33 33 0 0 1-4 8.5c-1.912.279-3.246-.554-4-2.5.073-1.527-.594-2.527-2-3a19.507 19.507 0 0 0-7-3c-2.031-.472-3.698-1.472-5-3 1.406-.473 2.073-1.473 2-3 1.762-.762 2.762-2.096 3-4 1.121-3.091.787-6.091-1-9 .321-1.548 1.321-2.215 3-2 1.291-.237 2.291.096 3 1 1.272.934 2.772 1.601 4.5 2 1.301-.139 2.134-.805 2.5-2 1.681-1.508 3.681-2.508 6-3z"/><path style="opacity:.655" fill="#89878f" d="M290.5 371.5c2.498.582 4.831.582 7 0-.366 1.195-1.199 1.861-2.5 2-1.728-.399-3.228-1.066-4.5-2z"/><path style="opacity:1" fill="#2c2b39" d="M431.5 359.5c3.018.204 6.018.537 9 1a18.473 18.473 0 0 1-2 3.5l1 1-3 1c.837 1.011 1.17 2.178 1 3.5-.333 1-1 1.667-2 2 .131-.876-.202-1.543-1-2l-3 1.5c1.211.893 1.211 1.726 0 2.5-.951-.826-1.951-.992-3-.5a64.334 64.334 0 0 1-4 7.5 33.365 33.365 0 0 0-7 2.5l1 1c-1.167.5-2 1.333-2.5 2.5l-1-2a27.603 27.603 0 0 1-1.5 5c-2.475 2.741-5.475 4.741-9 6a12.93 12.93 0 0 0-5 .5c1.098.77 1.098 1.603 0 2.5-1.235-.221-2.235-.888-3-2-1.211.774-1.211 1.607 0 2.5l-4 1c1.098.77 1.098 1.603 0 2.5-5.403 4.035-11.403 7.035-18 9-2.053-.098-3.72.569-5 2-3.297 2.101-6.963 3.435-11 4 1.391-2.071 3.224-3.738 5.5-5a4.934 4.934 0 0 0 .5-3c3.679.137 7.179-.529 10.5-2l1 1c1.843-.774 3.676-2.274 5.5-4.5a12.93 12.93 0 0 1 5-.5c.406-1.609.406-2.943 0-4-3.193 1.009-6.526 1.009-10 0a10.165 10.165 0 0 0 3-3c1.527.073 2.527-.594 3-2a22.581 22.581 0 0 1 8-4c1.527.073 2.527-.594 3-2 .342-.838 1.008-1.172 2-1 1.527.073 2.527-.594 3-2 1.527.073 2.527-.594 3-2 .342-.838 1.008-1.172 2-1 1.544-.203 2.878-.87 4-2a6.802 6.802 0 0 1 1.5 3 15.58 15.58 0 0 0 1.5-6c2.249-.58 3.915-1.913 5-4 2.249-.58 3.915-1.913 5-4 4.271-2.601 7.937-5.934 11-10z"/><path style="opacity:.188" fill="#bcbac2" d="M303.5 368.5c.709-.904 1.709-1.237 3-1v12c-.375-3.942-1.375-7.609-3-11z"/><path style="opacity:.816" fill="#89898f" d="M151.5 376.5a5.727 5.727 0 0 1 3 1l2 3c-2.249-.58-3.915-1.913-5-4z"/><path style="opacity:.549" fill="#96969a" d="M230.5 368.5c5.981 8.453 3.648 11.12-7 8a21.127 21.127 0 0 0 9-1c-1.446-2.118-2.113-4.451-2-7z"/><path style="opacity:.886" fill="#88888e" d="M362.5 370.5a51.569 51.569 0 0 1-1 7h5a61.16 61.16 0 0 1-5.5 2l-1-1c-.022-2.951.811-5.617 2.5-8z"/><path style="opacity:.886" fill="#7b7a81" d="M415.5 373.5c-1.085 2.087-2.751 3.42-5 4 1.085-2.087 2.751-3.42 5-4z"/><path style="opacity:1" fill="#4d4c56" d="M223.5 376.5a2806.721 2806.721 0 0 1-10 7 10.776 10.776 0 0 1-2-6c1.763-1.13 3.596-1.13 5.5 0a32.647 32.647 0 0 0 4.5-2c.916.043 1.583.376 2 1z"/><path style="opacity:.506" fill="#97969c" d="M372.5 377.5c1.527-.073 2.527.594 3 2-1.527.073-2.527-.594-3-2z"/><path style="opacity:1" fill="#52505b" d="M410.5 377.5a15.58 15.58 0 0 1-1.5 6 6.802 6.802 0 0 0-1.5-3c-1.122 1.13-2.456 1.797-4 2 1.796-2.4 4.13-4.067 7-5z"/><path style="opacity:.592" fill="#807e87" d="M284.5 372.5c1.787 2.909 2.121 5.909 1 9a29.23 29.23 0 0 1-1-9z"/><path style="opacity:.557" fill="#86858e" d="M375.5 379.5c1.527-.073 2.527.594 3 2-1.527.073-2.527-.594-3-2z"/><path style="opacity:.322" fill="#8f8e94" d="M385.5 369.5c-2.549 3.838-4.049 8.172-4.5 13-1.159 1.066-1.992.733-2.5-1 1.086-.12 1.753-.787 2-2 .613-3.181 1.28-6.348 2-9.5.676-1.683 1.676-1.85 3-.5z"/><path style="opacity:.545" fill="#aaaaac" d="M308.5 380.5a25.657 25.657 0 0 1 6 6c-.825.886-1.825 1.219-3 1 .111-.617.444-1.117 1-1.5-1.964-1.451-3.297-3.284-4-5.5z"/><path style="opacity:1" fill="#52515e" d="M435.5 371.5c-6.456 7.128-13.79 13.128-22 18a27.603 27.603 0 0 0 1.5-5l1 2c.5-1.167 1.333-2 2.5-2.5l-1-1a33.365 33.365 0 0 1 7-2.5 64.334 64.334 0 0 0 4-7.5c1.049-.492 2.049-.326 3 .5 1.211-.774 1.211-1.607 0-2.5l3-1.5c.798.457 1.131 1.124 1 2z"/><path style="opacity:.518" fill="#8f8f93" d="M158.5 382.5c1.527-.073 2.527.594 3 2-1.527.073-2.527-.594-3-2z"/><path style="opacity:.635" fill="#8a8990" d="M285.5 381.5c-.238 1.904-1.238 3.238-3 4 .238-1.904 1.238-3.238 3-4z"/><path style="opacity:.627" fill="#9a9aa0" d="M401.5 383.5c-.473 1.406-1.473 2.073-3 2 .473-1.406 1.473-2.073 3-2z"/><path style="opacity:.761" fill="#84848b" d="M282.5 385.5c.073 1.527-.594 2.527-2 3-.073-1.527.594-2.527 2-3z"/><path style="opacity:.631" fill="#98979c" d="M398.5 385.5c-.473 1.406-1.473 2.073-3 2 .473-1.406 1.473-2.073 3-2z"/><path style="opacity:.659" fill="#7f7f86" d="M165.5 387.5c1.904.238 3.238 1.238 4 3-1.904-.238-3.238-1.238-4-3z"/><path style="opacity:1" fill="#32313f" d="M172.5 378.5a535.646 535.646 0 0 0 38 22c-.14 1.624.527 2.79 2 3.5 2.646.497 5.313.664 8 .5 1.291-.237 2.291.096 3 1v1a5.576 5.576 0 0 0-3 1 244.71 244.71 0 0 0-15-3.5c-.482-1.008-.648-2.175-.5-3.5-5.402-1.8-6.236-.967-2.5 2.5-3.502 2.011-3.502 3.344 0 4-1.098.77-1.098 1.603 0 2.5-3.651-1.159-6.985-2.826-10-5-1.098-.897-1.098-1.73 0-2.5-2.366-.44-4.699-.94-7-1.5-2.831-.579-5.164-1.912-7-4-.473-1.406-1.473-2.073-3-2-.473-1.406-1.473-2.073-3-2-.473-1.406-1.473-2.073-3-2-.762-1.762-2.096-2.762-4-3s-3.238-1.238-4-3c-.473-1.406-1.473-2.073-3-2-1-.333-1.667-1-2-2 1.586.913 3.086.913 4.5 0a20.174 20.174 0 0 1 4 6c1.881-.854 3.714-.521 5.5 1a32.367 32.367 0 0 0 3-4.5c.03-1.429-.303-2.929-1-4.5z"/><path style="opacity:1" fill="#6a6971" d="M311.5 387.5c-2.761 1.705-5.761 3.038-9 4-.792-1.467-.792-2.8 0-4 2.974 1.077 5.974 1.077 9 0z"/><path style="opacity:.631" fill="#9a9aa2" d="M393.5 388.5c-.473 1.406-1.473 2.073-3 2 .473-1.406 1.473-2.073 3-2z"/><path style="opacity:.145" fill="#b1b1b6" d="M280.5 388.5c1.302 1.528 2.969 2.528 5 3-2.573.352-4.906-.148-7-1.5.544-.717 1.211-1.217 2-1.5z"/><path style="opacity:.545" fill="#86858c" d="M169.5 390.5c1.527-.073 2.527.594 3 2-1.527.073-2.527-.594-3-2z"/><path style="opacity:.498" fill="#898991" d="M172.5 392.5c1.527-.073 2.527.594 3 2-1.527.073-2.527-.594-3-2z"/><path style="opacity:.463" fill="#8f8f9a" d="M175.5 394.5c1.527-.073 2.527.594 3 2-1.527.073-2.527-.594-3-2z"/><path style="opacity:.659" fill="#95949b" d="M382.5 394.5c-.473 1.406-1.473 2.073-3 2 .473-1.406 1.473-2.073 3-2z"/><path style="opacity:1" fill="#6e6c76" d="M404.5 395.5c-1.159 1.75-2.826 2.75-5 3 1.098-.897 1.098-1.73 0-2.5a12.93 12.93 0 0 1 5-.5z"/><path style="opacity:.086" fill="#c1c1c8" d="M292.5 394.5c1.406.473 2.073 1.473 2 3-1.406-.473-2.073-1.473-2-3z"/><path style="opacity:.98" fill="#68666f" d="M379.5 396.5a10.165 10.165 0 0 1-3 3h-4c2.009-1.565 4.343-2.565 7-3z"/><path style="opacity:.998" fill="#585861" d="M399.5 398.5c-1.836 2.088-4.169 3.421-7 4 1.098-.897 1.098-1.73 0-2.5l4-1c-1.211-.893-1.211-1.726 0-2.5.765 1.112 1.765 1.779 3 2z"/><path style="opacity:1" fill="#62616b" d="M185.5 400.5c2.301.56 4.634 1.06 7 1.5-1.098.77-1.098 1.603 0 2.5-2.831-.579-5.164-1.912-7-4z"/><path style="opacity:.945" fill="#77777f" d="M372.5 399.5v1c-2.088 1.439-4.421 2.106-7 2 2.009-1.565 4.343-2.565 7-3z"/><path style="opacity:1" fill="#55555e" d="M210.5 400.5c3.637.763 6.97 2.097 10 4a32.462 32.462 0 0 1-8-.5c-1.473-.71-2.14-1.876-2-3.5z"/><path style="opacity:1" fill="#262535" d="M372.5 400.5v-1h4c3.474 1.009 6.807 1.009 10 0 .406 1.057.406 2.391 0 4a12.93 12.93 0 0 0-5 .5c-1.824 2.226-3.657 3.726-5.5 4.5l-1-1c-3.321 1.471-6.821 2.137-10.5 2a4.934 4.934 0 0 1-.5 3c-2.276 1.262-4.109 2.929-5.5 5-3.252-.21-6.252.456-9 2-4.604-1.016-9.27-1.016-14 0-.067-4.601 2.267-6.934 7-7 1.406 1.168 2.572.835 3.5-1 1.296.568 2.796.568 4.5 0a24.595 24.595 0 0 0 6-3c2.319 1.555 3.819.888 4.5-2 1.398.551 2.732.884 4 1 2.158-2.664 4.991-4.164 8.5-4.5-1.134-1.016-.801-1.683 1-2a2.428 2.428 0 0 0-2-.5z"/><path style="opacity:.6" fill="#919097" d="M223.5 406.5v-1c2.286.095 4.286.762 6 2a19.22 19.22 0 0 1-6-1z"/><path style="opacity:.761" fill="#808088" d="M365.5 402.5c-3.652 2.287-7.652 4.121-12 5.5a12.93 12.93 0 0 1-5 .5 127.633 127.633 0 0 1 17-6z"/><path style="opacity:.627" fill="#94939a" d="M229.5 407.5c4.945.733 9.612 2.066 14 4a19.22 19.22 0 0 1-6-1c-2.986-.403-5.652-1.403-8-3z"/><path style="opacity:.749" fill="#95959c" d="M348.5 408.5c-2.015 1.424-4.348 2.09-7 2 2.015-1.424 4.348-2.09 7-2z"/><path style="opacity:1" fill="#282736" d="M223.5 406.5a19.22 19.22 0 0 0 6 1c2.348 1.597 5.014 2.597 8 3-2.039 1.411-3.039 3.411-3 6-.904.709-1.237 1.709-1 3a51.569 51.569 0 0 0-7-1h-1c.077-1.25.744-2.083 2-2.5-1.757-1.359-3.757-1.526-6-.5a45.824 45.824 0 0 0-9-2c-3.637-.763-6.97-2.097-10-4-1.098-.897-1.098-1.73 0-2.5-3.502-.656-3.502-1.989 0-4-3.736-3.467-2.902-4.3 2.5-2.5-.148 1.325.018 2.492.5 3.5a244.71 244.71 0 0 1 15 3.5 5.576 5.576 0 0 1 3-1z"/><path style="opacity:.22" fill="#afafb4" d="M374.5 411.5c-1.28 1.431-2.947 2.098-5 2 1.28-1.431 2.947-2.098 5-2z"/><path style="opacity:.604" fill="#a2a2a6" d="M250.5 412.5c2.873.302 5.539.969 8 2-3.053.389-5.72-.277-8-2z"/><path style="opacity:.808" fill="#9e9da4" d="M326.5 413.5c-5.047 1.806-10.38 2.806-16 3h-7a1060.8 1060.8 0 0 1 23-3z"/><path style="opacity:1" fill="#32313e" d="M372.5 400.5a2.428 2.428 0 0 1 2 .5c-1.801.317-2.134.984-1 2-3.509.336-6.342 1.836-8.5 4.5-1.268-.116-2.602-.449-4-1-.681 2.888-2.181 3.555-4.5 2a24.595 24.595 0 0 1-6 3c-1.704.568-3.204.568-4.5 0-.928 1.835-2.094 2.168-3.5 1-4.733.066-7.067 2.399-7 7 4.73-1.016 9.396-1.016 14 0v1c-5.073 1.935-10.406 3.268-16 4-1.783-.955-3.783-1.622-6-2-2.696 1.121-5.363 1.121-8 0 1.095-2.12 2.761-3.62 5-4.5l-1.5-.5c-2.516 1.273-5.016 1.273-7.5 0-1.196.346-1.196.846 0 1.5a12.93 12.93 0 0 1-5 .5v-3c5.62-.194 10.953-1.194 16-3a99.577 99.577 0 0 1 15-3c2.652.09 4.985-.576 7-2a12.93 12.93 0 0 0 5-.5c4.348-1.379 8.348-3.213 12-5.5 2.579.106 4.912-.561 7-2z"/><path style="opacity:1" fill="#4d4d57" d="M212.5 413.5a45.824 45.824 0 0 1 9 2c2.243-1.026 4.243-.859 6 .5-1.256.417-1.923 1.25-2 2.5-4.644-1.099-8.978-2.766-13-5z"/><path style="opacity:1" fill="#2e2d3a" d="M237.5 410.5a19.22 19.22 0 0 0 6 1c2.361.174 4.694.507 7 1 2.28 1.723 4.947 2.389 8 2h2v1a95.99 95.99 0 0 0-5 6c1.412 1.306 3.079 2.14 5 2.5-.916.278-1.582.778-2 1.5h-3c-2.45.202-4.783-.131-7-1-2.338-1.54-5.005-2.206-8-2-1.468-1.279-2.135-2.946-2-5-1.599.268-2.932-.066-4-1-.039-2.589.961-4.589 3-6z"/><path style="opacity:.464" fill="#a3a2a9" d="M260.5 415.5v-1a339.867 339.867 0 0 0 40 2c-6.145.99-12.478 1.323-19 1a446.502 446.502 0 0 1-21-2z"/><path style="opacity:1" fill="#4b4b55" d="M234.5 416.5c1.068.934 2.401 1.268 4 1-.135 2.054.532 3.721 2 5-5.029-.42-9.695-1.754-14-4 2.361.174 4.694.507 7 1-.237-1.291.096-2.291 1-3z"/><path style="opacity:1" fill="#3f3e4a" d="M300.5 416.5h10v3a12.93 12.93 0 0 0 5-.5c-1.196-.654-1.196-1.154 0-1.5 2.484 1.273 4.984 1.273 7.5 0l1.5.5c-2.239.88-3.905 2.38-5 4.5 2.637 1.121 5.304 1.121 8 0 2.217.378 4.217 1.045 6 2-21.35 4.535-42.683 5.535-64 3 11.005.167 22.005 0 33-.5a54.628 54.628 0 0 0-7-2c5.35-.879 10.516-1.379 15.5-1.5 2.324 1.996 4.491 1.496 6.5-1.5-1.284-.684-2.451-.517-3.5.5-2.016-2.251-4.349-2.584-7-1-.381-.982-1.214-1.648-2.5-2a4.933 4.933 0 0 0-2.5 1 175.94 175.94 0 0 0-20.5-3c6.522.323 12.855-.01 19-1z"/><path style="opacity:1" fill="#6c6a74" d="M358.5 417.5c-2.715 1.572-5.715 2.572-9 3v-1c2.748-1.544 5.748-2.21 9-2z"/><path style="opacity:1" fill="#262634" d="M260.5 415.5a446.502 446.502 0 0 0 21 2 175.94 175.94 0 0 1 20.5 3 4.933 4.933 0 0 1 2.5-1c1.286.352 2.119 1.018 2.5 2 2.651-1.584 4.984-1.251 7 1 1.049-1.017 2.216-1.184 3.5-.5-2.009 2.996-4.176 3.496-6.5 1.5-4.984.121-10.15.621-15.5 1.5a54.628 54.628 0 0 1 7 2c-10.995.5-21.995.667-33 .5-3.446-1.187-7.113-1.854-11-2 .418-.722 1.084-1.222 2-1.5-1.921-.36-3.588-1.194-5-2.5a95.99 95.99 0 0 1 5-6z"/><path style="opacity:.573" fill="#86858b" d="M240.5 422.5c2.995-.206 5.662.46 8 2-2.928-.065-5.595-.732-8-2z"/><path style="opacity:.671" fill="#717178" d="M255.5 425.5h3c3.887.146 7.554.813 11 2-4.914.138-9.581-.528-14-2z"/></svg>